<svg width="119" height="92" fill="none" xmlns="http://www.w3.org/2000/svg"><path d="M10.553 83.473C3.687 76.18 0 68 0 54.74 0 31.407 16.38 10.493 40.2.153l5.953 9.187C23.92 21.367 19.573 36.973 17.84 46.813c3.58-1.853 8.267-2.5 12.86-2.073C42.727 45.853 52.207 55.727 52.207 68a23.333 23.333 0 01-23.334 23.333c-7.153 0-13.993-3.266-18.32-7.86zm66.667 0C70.353 76.18 66.667 68 66.667 54.74c0-23.333 16.38-44.247 40.2-54.587l5.953 9.187C90.587 21.367 86.24 36.973 84.507 46.813c3.58-1.853 8.266-2.5 12.86-2.073 12.026 1.113 21.506 10.987 21.506 23.26A23.332 23.332 0 0195.54 91.333c-7.153 0-13.993-3.266-18.32-7.86z" fill="#FF3F3F"/></svg>