<svg width="103" height="80" fill="none" xmlns="http://www.w3.org/2000/svg"><path fill-rule="evenodd" clip-rule="evenodd" d="M.678 80H102.51V0H.678v80z" fill="#C0004A"/><path fill-rule="evenodd" clip-rule="evenodd" d="M94.093 58.921l-.176.459c-.175.456-.296.723-.466 1.09-.105.23-.227.497-.392.886l-3.58 8.842c-.623 1.571-1.872 2.473-3.413 2.473-.53 0-1.156-.16-1.51-.306l-.323-.136.142-.317c.498-1.065.819-1.406 1.86-1.49.389-.03.822-.49 1.12-1.207l.153-.366-3.238-7.5c-.17-.399-.305-.71-.432-1.02-.126-.293-.247-.582-.405-.936l-.201-.472h1.597c.92 0 1.327.284 1.681 1.182 0 0 1.783 4.407 1.913 4.732.134.322.29 1.098.29 1.098l.078-.005s.116-.689.255-1.093c.14-.403 1.726-4.722 1.726-4.722.334-.883.785-1.192 1.727-1.192h1.594zm-28.38 7.717c-.286 0-.551.12-.81.24l-.037.014c-.534.245-1.183.546-1.956.546-1.314 0-3.012-.81-3.16-2.577h7.259c.044-.338.069-.83.069-1.094 0-2.902-1.926-4.848-4.773-4.848-3.045 0-5.172 2.213-5.172 5.385 0 3.118 2.525 5.377 5.681 5.377 2.567 0 4.004-1.562 4.068-1.624l.171-.171-.105-.216c-.235-.475-.574-1.032-1.235-1.032zm-3.232-5.75c1.074 0 2.206.658 2.206 2.055h-4.916c.168-1.074 1.262-2.056 2.71-2.056zm-19.603 6.43l-2.05-3.241 1.744-2.609c.322-.475.565-.812.832-1.176.189-.256.384-.52.598-.837l.37-.524h-1.9c-1.069 0-1.468.228-2.042 1.174 0 0-.766 1.273-.877 1.449-.098.172-.362.762-.37.776h-.067s-.24-.543-.384-.776c-.136-.237-.88-1.451-.88-1.451-.606-.944-1.006-1.172-2.038-1.172h-1.896l.385.532c.46.642.722 1.026 1.115 1.595l2.032 3.019-1.725 2.835a23.34 23.34 0 01-.829 1.169c-.191.27-.386.528-.603.835l-.368.53h1.9c1.072 0 1.47-.226 2.041-1.173l.876-1.443c.1-.179.367-.766.374-.777h.068s.236.54.377.777c.145.232.888 1.451.888 1.451.606.939 1.006 1.166 2.034 1.166h1.894l-.382-.53c-.458-.644-.722-1.025-1.117-1.599zm8.246-8.274c-1.422 0-2.398.574-2.971 1.063h-.07s.07-.564.07-1.14v-1.948c0-1.048-.508-1.558-1.556-1.558h-.962v9.028c.126 3.281 2.175 5.317 5.342 5.317 2.925 0 5.126-2.313 5.126-5.383 0-3.068-2.14-5.38-4.979-5.38zm-.416 8.502c-1.62 0-2.658-1.566-2.658-3.09 0-2.303 1.482-3.125 2.695-3.125 1.39 0 2.819 1.167 2.819 3.109 0 1.946-1.452 3.106-2.856 3.106zm-33.652-8.503c-1.424 0-2.402.575-2.972 1.063h-.072s.072-.563.072-1.14V57.02c0-1.048-.51-1.558-1.558-1.558h-.961v9.028c.124 3.281 2.167 5.317 5.339 5.317 2.926 0 5.128-2.313 5.128-5.383 0-3.068-2.139-5.38-4.976-5.38zm-.42 8.503c-1.618 0-2.652-1.566-2.652-3.09 0-2.303 1.48-3.125 2.693-3.125 1.384 0 2.82 1.167 2.82 3.109 0 1.946-1.46 3.106-2.86 3.106zm11.844-8.503c-3.145 0-5.51 2.305-5.51 5.361 0 3.078 2.365 5.402 5.51 5.402 3.102 0 5.536-2.375 5.536-5.402 0-3.056-2.377-5.36-5.536-5.36zm0 8.489c-1.685 0-2.955-1.348-2.955-3.128 0-1.76 1.27-3.09 2.955-3.09 1.698 0 2.97 1.33 2.97 3.09 0 1.78-1.272 3.128-2.97 3.128zm52.998-8.728c-1.084 0-2.416.93-2.713 2.121v-.71c0-.627-.375-1.293-1.57-1.293h-.887v10.3h2.519v-4.268c0-.635.069-1.173.214-1.638.377-1.23 1.31-2.028 2.375-2.028.264 0 .478.05.478.05l.414.095v-2.54l-.28-.041c-.017 0-.28-.048-.55-.048zm-7.317 0c-1.082 0-2.414.93-2.71 2.121v-.71c0-.627-.379-1.293-1.57-1.293h-.89v10.3h2.524v-4.268c0-.635.064-1.173.208-1.638.381-1.23 1.315-2.028 2.382-2.028.258 0 .474.05.474.05l.416.095v-2.54l-.286-.041c-.011 0-.277-.048-.548-.048zM49.36 40.074a4.38 4.38 0 016.179 0 4.368 4.368 0 010 6.181 4.363 4.363 0 01-6.18 0 4.39 4.39 0 010-6.181zm7.344-7.337a4.376 4.376 0 000 6.178 4.368 4.368 0 100-6.177zm7.345-7.34a4.358 4.358 0 000 6.18 4.368 4.368 0 006.177 0 4.38 4.38 0 000-6.18 4.372 4.372 0 00-6.177 0zm-22.025 7.34a4.372 4.372 0 006.185 6.178 4.38 4.38 0 000-6.178 4.381 4.381 0 00-6.185 0zm-7.338-7.34a4.366 4.366 0 000 6.18 4.37 4.37 0 100-6.18zm14.674 0a4.39 4.39 0 000 6.18 4.38 4.38 0 006.187 0 4.382 4.382 0 000-6.18 4.383 4.383 0 00-6.187 0zm-7.336-7.338c-1.704 1.713-1.704 4.479 0 6.179a4.378 4.378 0 006.185 0c1.7-1.7 1.7-4.466 0-6.18a4.377 4.377 0 00-6.185 0zm14.68 0c-1.702 1.713-1.702 4.479 0 6.179a4.369 4.369 0 100-6.18z" fill="#fff"/><path fill-rule="evenodd" clip-rule="evenodd" d="M49.36 10.724a4.372 4.372 0 016.187 0 4.373 4.373 0 010 6.173 4.387 4.387 0 01-6.187 0 4.381 4.381 0 010-6.173z" fill="#ABCE37"/></svg>