<svg width="166" height="80" fill="none" xmlns="http://www.w3.org/2000/svg"><g clip-path="url(#clip0)"><path d="M0 79.987h80V0H0v79.988zM162.737.013H85.141V80h79.987V.013h-2.391z" fill="#0055A5"/><path d="M89.934 75.206h70.388v-70.4H89.934v70.4zM7.324 43.835v16.678h2.75V55.67c.537.467 1.13.747 1.763.747.909 0 1.656-.478 2.242-1.434.658-1.065.986-2.636.986-4.692 0-1.435-.263-2.726-.776-3.826l-.09-.18-.09-.149-.06-.149-.09-.12-.09-.149-.12-.149-.09-.12-.09-.119-.12-.12-.09-.119-.119-.12-.12-.09-.119-.119-.12-.09-.119-.09-.12-.09-.149-.059-.12-.09-.119-.06-.149-.058-.15-.06-.148-.06-.15-.06-.149-.03-.149-.03-.149-.03-.179-.058h-.15l-.178-.03h-.15l-.179-.03H7.325v-.002zm2.6 2.362h.27c.693 0 1.231.4 1.613 1.165.382.765.568 1.948.568 3.587 0 .884-.108 1.584-.359 2.062-.239.478-.55.717-.896.717-.335 0-.61-.227-.837-.658-.226-.418-.358-1.021-.358-1.823v-5.05zm62.092-3.173l-.227.227s-5.75 6.001-6.18 6.456v-5.882h-2.69v16.712h2.69v-6.862c.072-.083 3.526-3.742 3.921-4.16.024.61.394 11.022.394 11.022h2.75l-.658-17.513zm-13.115.228l-.012.024-.024.011-.024.037-.036.035-.048.048-.048.048-.06.06-.06.06-.071.072-.072.084-.084.083-.083.084-.084.095-.096.096-.107.107-.215.227-.227.24-.24.251-.25.263-.263.275-.275.274-.275.287-.275.3-.561.585-.275.286-.274.276-.263.274-.25.276-.252.251-.227.24-.215.226-.107.107-.096.108-.096.096-.084.096-.083.084-.072.084-.072.072-.071.071-.06.06-.047.048-.048.048-.037.048-.036.024-.024.036v-5.881H50.02V60.54h2.702v-6.862c.072-.083 3.527-3.742 3.921-4.16.024.61.395 11.022.395 11.022h2.738l-.658-17.516-.216.228zM43.263 56.39l-.167-.203-.144-.203-.143-.228-.12-.226-.12-.24-.108-.239-.108-.25-.083-.252-.072-.274-.071-.263-.06-.287-.048-.287-.037-.3-.024-.299-.012-.31-.012-.311c0-1.757.43-3.156 1.267-4.184.92-1.124 2.26-1.685 4.005-1.685h.131v-2.917h-.131c-2.726 0-4.818.836-6.24 2.522-1.291 1.518-1.948 3.634-1.948 6.288 0 2.558.717 4.674 2.115 6.264 1.482 1.674 3.527 2.534 6.11 2.534h.13v-2.928h-.13c-1.696-.001-3.035-.575-3.98-1.723zM21.64 43.417c-1.445 0-2.6.819-3.436 2.421-.813 1.578-1.226 3.676-1.226 6.246 0 2.654.389 4.8 1.166 6.366.79 1.602 1.967 2.42 3.497 2.42 1.566 0 2.803-.866 3.676-2.54.813-1.566 1.225-3.682 1.225-6.277 0-2.558-.419-4.65-1.256-6.216l-.09-.15-.09-.148-.06-.15-.12-.12-.06-.119-.119-.12-.09-.119-.09-.12-.09-.119-.12-.12-.089-.09-.12-.09-.09-.09-.119-.089-.09-.09-.12-.09-.119-.06-.12-.06-.12-.059-.119-.059-.12-.06-.119-.06-.12-.03-.148-.06-.12-.03-.15-.03-.119-.03h-.12l-.148-.029-.15-.03h-.296v.001zm0 2.69c.766 0 1.328.544 1.674 1.644.335.992.479 2.438.479 4.303 0 1.805-.168 3.306-.538 4.453l-.06.12-.03.09-.03.09-.029.09-.03.09-.059.09-.03.09-.06.06-.03.09-.06.06-.03.09-.029.06-.06.059-.06.06-.03.059-.058.03-.03.059-.06.059-.06.03-.06.059-.06.03-.06.029-.03.03-.06.03h-.06l-.06.029-.06.03h-.06l-.06.03h-.211c-.657 0-1.154-.562-1.524-1.674-.383-1.16-.569-2.648-.569-4.394 0-1.78.186-3.252.569-4.363.349-1.062.856-1.612 1.526-1.612zM32.9 56.39l-.07-.096-.085-.107-.156-.203-.13-.228-.133-.226-.12-.24-.107-.239-.095-.25-.096-.252-.072-.274-.071-.263-.048-.287-.048-.287-.035-.3-.024-.299-.024-.31v-.311c0-1.757.418-3.156 1.267-4.184.909-1.124 2.248-1.685 3.993-1.685h.143v-2.917h-.143c-2.714 0-4.818.836-6.228 2.522-1.303 1.518-1.948 3.634-1.948 6.288 0 2.558.705 4.674 2.115 6.264 1.47 1.674 3.527 2.534 6.11 2.534h.13v-2.928h-.13c-1.711-.001-3.05-.575-3.994-1.723zM7.352 19.319v16.796h3.096V22.104h3.826v14.01h3.084V19.32H7.352zm19.488-.439c-1.638 0-2.953.824-3.885 2.45-.92 1.591-1.375 3.695-1.375 6.277 0 2.665.43 4.848 1.315 6.425.896 1.615 2.224 2.421 3.945 2.421 1.757 0 3.144-.843 4.124-2.54.921-1.578 1.405-3.712 1.405-6.306 0-2.582-.502-4.699-1.435-6.276l-.09-.15-.09-.149-.09-.149-.119-.12-.09-.148-.12-.12-.09-.12-.119-.119-.12-.12-.09-.09-.119-.119-.12-.09-.119-.09-.12-.09-.149-.09-.12-.06-.119-.09-.12-.06-.148-.06-.12-.06-.15-.06-.148-.06-.12-.03-.15-.06-.148-.03-.15-.03-.149-.029-.149-.03h-.328l-.15-.03h-.179v.002zm.03 2.84c.837 0 1.43.538 1.824 1.614.358.98.537 2.409.537 4.274 0 1.78-.21 3.27-.627 4.393-.407 1.1-.968 1.614-1.733 1.614h-.27l-.06-.03-.06-.03h-.06l-.061-.03-.06-.029-.06-.03-.06-.03-.06-.029-.06-.06-.06-.03-.06-.06-.06-.029-.03-.06-.06-.06-.06-.06-.03-.06-.06-.06-.06-.09-.03-.06-.06-.06-.03-.09-.06-.09-.029-.06-.03-.12-.06-.09-.03-.09-.03-.09-.06-.09c-.417-1.16-.627-2.63-.627-4.364 0-1.78.21-3.233.628-4.333.4-1.061.955-1.582 1.709-1.582zm22.335-2.401v2.785h2.57v14.01h3.097v-14.01h2.606v-2.785h-8.273zm-6.779 5.845h-1.685c-.693 0-1.219-.155-1.542-.466-.24-.215-.347-.514-.347-.897v-4.483h-3.096v4.794c0 1.1.442 2.044 1.302 2.785.849.73 1.902 1.1 3.109 1.1h2.259v8.116h3.096V19.318h-3.096v5.846zm19.082-5.836l-.569 16.797h3.079s.287-7.848.298-8.22h3.855l.897 8.22h3.108L70.74 23.84v-.446l-.03-.15v-.149l-.029-.12v-.148l-.03-.12-.03-.15-.029-.119-.03-.12-.03-.119-.029-.12-.06-.119-.03-.12-.03-.119-.06-.12-.06-.09-.06-.119-.03-.09-.06-.12-.06-.09-.09-.09-.06-.119-.06-.06-.09-.12-.06-.06-.09-.09-.09-.09-.09-.06-.06-.09-.12-.09c-.777-.61-1.83-.897-3.168-.897h-4.568v.002zm2.959 2.78h1.105c.8 0 1.339.257 1.674.746.275.407.46 1.183.568 2.272h-3.437v-.478l.03-.09v-1.194l.029-.12v-.867l.03-.06v-.208z" fill="#fff"/><path d="M109.372 25.857l.107.251.132.24.131.25.156.263.083.12.096.13.084.132.096.132.107.131.107.132.107.131.12.132.131.144.132.132.132.143.143.144.156.143.155.143.167.144.18.155.179.143.191.155.191.155.203.168.228.155.215.168.239.155.239.167c.586.406 1.256 1.256.754 2.439-.502 1.195-1.435 2.869-.873 3.527.562.657 2.546.992 4.172.346 0 0 .347 1.028.945 1.685 0 0-.287.562-1.219.275 0 0 .347.849-.132 1.757 0 0-1.088-.19-1.567-1.195 0 0-.43.79-1.302 1.064 0 0-.718-.37-.562-1.805 0 0-.526 1.28-2.151 1.495 0 0-.933-1.183.286-2.774 0 0-.884.777-2.462.407 0 0-.263-.813 1.184-1.937 0 0-1.626-.072-2.248-1.434 0 0 .681-.849 2.367-.658 0 0-1.565-.348-1.912-2.213 0 0 1.123-.717 2.917.43 0 0-.311-.597-1.064-1.195-.755-.57-1.663-2.233-1.34-4.672zm6.529 18.829l-.047-.059-.036-.06-.048-.06-.035-.06-.036-.059-.037-.06-.035-.047-.035-.06-.037-.06-.035-.06-.024-.06-.036-.058-.024-.048-.037-.06-.024-.06-.023-.06c.286 2.271.382 3.801 1.601 5.272 0 0 .754-.98.263-3.37a2.5 2.5 0 01-.658-.312s.287.97.109 1.949c0-.002-.443-.325-.766-2.608zm-2.129-.239l-.012-.011-.011-.024-.011-.024-.024-.011-.012-.024-.024-.024-.012-.024-.024-.024-.013-.024-.023-.035-.037-.048-.035-.06-.048-.06-.035-.06-.037-.06-.048-.059-.035-.06-.035-.048-.037-.059-.011-.035-.013-.024-.023-.024-.012-.024c-.107 1.315-.454 4.782.717 5.87 0 0 .789-.586 1.076-5.642-.167.286-.466.585-.61.752 0 0 .191 1.602-.382 2.737-.002-.002-.576-.444-.229-2.87zm-2.762 2.654l.085-.108.083-.13.084-.144.084-.155.072-.156.072-.168.06-.178.072-.18.06-.191.059-.192.048-.191.048-.203.095-.395.036-.191.048-.191.036-.192.024-.178.036-.18.024-.179.024-.167.024-.155.024-.144.011-.132.013-.13.012-.109.012-.048v-.047l.011-.048v-.072l.013-.024v-.095a4.57 4.57 0 00.406-.299c.06-.048.108-.084.167-.143 0 .13 0 .263.012.395-.144 2.104-.311 4.28-.968 5.367-.646 1.064-1.83 1.614-1.83 1.614-1.111-1.984.227-4.638 1.351-6.49.143-.049.287-.109.43-.18-.407 1.42-1.148 3.106-.838 4.41zm-2.762-6.085v.167l.013.035v.072l.011.012v.059l.012.024v.035l.012.013v.035l.013.013v.035l.011.012c.012.024.024.084.048.144-.932.897-1.626 1.78-3 3.693-1.387 1.925-3.575 1.996-3.575 1.996.215-1.554.634-2.786 1.805-4.1 1.16-1.327 2.666-2.535 3.766-3.336a2.01 2.01 0 001.124.156c.023 0 .071-.012.108-.012a1.662 1.662 0 00-.287.562c-.837.478-3.252 1.71-4.232 3.682-.001.003 1.529-.476 4.171-3.297zm-1.732-1.924l.096-.18a.987.987 0 01.095-.143c-.908.348-4.112 1.555-5.153 2.092-1.028.538-2.534 1.758-3.347 4.244 0 0 2.164.192 3.958-1.29 1.78-1.47 3.86-3.54 4.746-4.196a1.162 1.162 0 01-.204-.227s-2.415 2.14-4.973 3.06c0 0 .55-.98 1.554-1.709 1.232-.875 2.152-1.162 3.228-1.651zm-1.829-1.472l.012-.023.012-.036.012-.035.012-.024.011-.035.013-.037.012-.012v-.012l.012-.013.011-.024c-1.063.227-3.706.538-4.889.897-1.184.359-3.312 1.231-4.579 3.647 0 0 1.865.574 5.368-1.076 3.515-1.65 4.615-1.997 5.284-2.176a2.438 2.438 0 01-1.112-.334c-1.398.621-3.263 1.362-5.128 1.41 0 0 .92-.645 1.876-1.052 1.052-.443 2.2-.837 3.073-1.064zm.083-1.745l.059.036.059.024.06.024.071.036.06.011.059.024.059.024.06.013.061.023.071.013.061.012.071.013.036.012h.035l.036.013h.072l.048.012h.035l.037.013a2.99 2.99 0 00-.682.621c-1.243.359-3.347.741-6.826.993-3.479.263-5.331-.383-5.331-.383 1.206-.74 3.143-1.494 4.447-1.745 1.315-.252 4.746-.215 6.24-.43.024.024.215.167.514.347-1.279.12-3.968.239-5.368.932.001-.003 2.572.343 5.956-.638zm-.264-1.995l.035-.025.037-.012.035-.024.036-.011.036-.024.036-.013.036-.024.047-.023.036-.013.036-.024.048-.012.048-.024.035-.024.048-.012.048-.023.048-.013c-1.758-.526-4.173-1.387-7.806-1.626-2.667-.179-4.603-.024-5.595.24 0 0 2.426 1.71 5.212 2.319 2.774.597 5.033.215 6.671.226.119-.167.239-.334.43-.526-1.924.012-5.14-.478-6.288-.86.001.001 2.798-.596 6.731.527zm0-2.07v.026l.013.011v.024l.011.024v.035l.012.037.012.036.024.048.012.036.024.06.024.048.023.048.024.06.037.06.035.06.035.061.048.06.037.071.047.06.06.06.059.072.06.06.06.072.071.06.072.06.083.06.084.072.096.048.083.06.107.06.108.047c-2.475-1.076-7.352-1.697-9.958-2.797-3.539-1.459-4.184-3.3-4.184-3.3 3.06-.084 5.534.67 7.435 1.256 2.248.68 5.643 1.948 6.826 2.486-.443.013-.932.133-1.339.42-1.661-.634-2.439-.91-3.956-1.34-1.184-.334-2.07-.395-2.81-.466 0 0 1.052.693 2.773 1.243 1.713.544 2.454.64 3.852.903zm-.19-2.701l.012.012.012.024.011.024.013.013.012.024.011.024.012.023.024.024.011.024.012.024.024.036.011.023.036.06.048.049.036.059.036.048.012.036.023.024.012.024.024.024.012.024.024.024.013.023.012.024.011.013.012.024.012.012.013.024c-3.91-.658-8.213-3.61-9.54-5.451-1.326-1.829-.945-4.567-.945-4.567 1.291.263 4.089 2.678 4.806 3.407.729.717 2.928 2.857 4.447 4.053l.466 1.363c-1.291-1.04-2.833-2.2-3.802-2.929-.741-.561-1.852-1.339-2.94-1.721 0 0 1.004 1.315 1.829 1.96.945.754 1.9 1.4 2.689 1.83.708.38 1.067.607 2.489 1.288z" fill="#0055A5"/><path d="M115.339 40.06l.024-.025.024-.023.011-.013.024-.024.024-.024.024-.011.013-.024.023-.012.013-.024.024-.024.011-.013.024-.024.013-.012.024-.024.012-.012.024-.024c.18.239.776.992 1.076 1.745.226.634.466 1.506.586 1.996.12.514.467 1.542.693 1.9 0 0-.956.132-1.662-.704-.693-.801-.921-1.614-1.04-2.45-.084-.656-.048-1.564.035-2.175zm-1.507.12l.024.024.011.024.024.012.012.024.011.024.024.012.012.011.011.024.024.011.011.012.012.012.012.024.024.012.012.012h.011l.013.013.012.011.012.011.011.013h.012v.012h.013l.011.012h.012v.011h.012v.012h.013v.012l.143.06.131-.036c.12-.048.228-.096.323-.13.144.37.192.561.24.896.035.43.131 1.112-.036 1.674-.203.682-.61 1.088-.837 1.363 0 0-.621-.694-.8-1.255a3.203 3.203 0 01-.024-1.985c.134-.382.337-.73.504-.932zm-2.142.06l.059-.013h.059l.048-.013.06-.011.107-.024.108-.024.108-.035.107-.024.096-.036.095-.036.083-.048.085-.035.095-.048.072-.036.083-.048.072-.048.072-.048.071-.048c.085.216.204.526.12.944-.107.43-.395.921-.825 1.256-.646.515-1.495.992-2.451.837.002 0-.213-.706 1.676-2.463zm-.714-1.185l.012.06v.06l.013.049.011.06.012.048.012.048.013.06.011.048.024.047.013.037.011.048.024.047.012.037.024.036.012.035.012.037.024.035.012.036.012.024.024.024.011.036.013.024.012.012.012.024.011.024.013.011.012.013.012.012.011.013v.012h.012v.013c-.226.263-1.028 1.637-2.701 1.41 0 0-.455-.945.658-1.686.751-.518 1.121-.614 1.636-.794zm.142-1.183l-.083.024-.083.024-.096.012-.095.013-.096.012-.096.013h-.107l-.107.011h-.108l-.12-.011h-.107l-.059-.013h-.059l-.072-.012h-.059l-.06-.013-.06-.012-.059-.012-.072-.013-.059-.012-.072-.024-.191-.035-.06-.192c-.849.706-1.877.825-2.224 1.459 0 0 .43.789 1.542.645 1.112-.132 1.949-.645 2.547-1.398a1.91 1.91 0 01.115-.466zm-1.925-.98l.024-.048.036-.048.024-.047.024-.06.036-.048.023-.06.036-.06.024-.06.036-.06.035-.072.024-.036.024-.024.013-.036.024-.036.024-.036.023-.024.024-.036.024-.035.037-.036.024-.035.036-.036.024-.024a5.533 5.533 0 00-2.26.024c-1.028.19-2.08.43-2.606 1.984 0 0 .657.574 1.865.323 1.004-.202 1.889-.645 2.402-1.374zm-.441-1.698l-.048-.047-.048-.036-.047-.048-.048-.047-.037-.048-.047-.06-.048-.048-.036-.048-.047-.06-.036-.06-.048-.06-.036-.061-.036-.072-.036-.06-.035-.072-.036-.072-.084-.19c-.884-.36-1.817-.55-2.725-.216-.909.346-1.148.741-1.376 1.076 0 0 1.005.848 2.165.884 1.159.026 2.222-.308 2.689-.655zm.273-1.829l.024-.012.035-.012.024-.012h.036l.023-.012.037-.012.024-.013.036-.012h.036l.036-.013.035-.012h.024l.035-.013.037-.012h.036l.035-.012c-.382-.347-.776-.873-.968-1.674-.407.096-1.387.096-1.805-.06-.43-.168-1.267-.18-1.925.263 0 0 .215 1.136 1.697 1.53 1.401.375 1.914.28 2.488.088zm-.538-2.235l.192-.132c.024-.012.358-.215.932-.252-.478-.37-1.626-1.326-2.427-1.769-.872-.49-2.331-1.16-3.084-1.256 0 0 .705 1.829 1.506 2.571.849.766 1.434 1.053 2.881.838zm1.495-.85l-.059-.084-.059-.095-.072-.096-.06-.095-.048-.109-.059-.107-.06-.108-.048-.12-.047-.119-.06-.12-.047-.119-.037-.132-.048-.13-.047-.133-.036-.143-.035-.132c-.18-.622-.563-2.128-.789-2.535-.227-.395-1.052-1.757-2.654-2.188 0 0-.419 1.78.382 3.215.692 1.223 2.114 2.514 3.883 3.35zm8.908 8.345l.048.036.035.036.037.036.035.024.036.036.036.024.036.036.035.024.037.024.048.037.023.012.024.012.024.013.024.024.024.012.024.013.036.011.024.024.024.013.036.012.035.024.024.012s.514.98-.107 2.152a29.33 29.33 0 00-1.387 3.06s-.335-.047-.705-1.9c-.25-1.243-.561-1.566-.896-1.984.359.179.646.227.682.227l.239.06.12-.24a2.51 2.51 0 00.274-1.16c0-.119 0-.226-.012-.323.573.024.884-.274 1.004-.418.011-.024.024-.024.024-.035l.059.066z" fill="#0055A5"/><path d="M105.259 24.47v.566l.036.442c-.957-1.208-2.092-2.666-3.168-4.017-.741-.92-1.363-1.47-2.069-1.925.598 1.709 1.65 3.073 2.391 3.742.742.681 1.818 1.829 2.87 2.534l.095.335c.083.323.203.646.37.956.263.43.574.85.957 1.268a13.16 13.16 0 00-1.005-.466l-.334-.143c-2.882-1.518-5.75-4.698-6.898-6.898-1.159-2.212-.681-4.77-.382-6.144 1.315 1.112 3.216 3.299 4.029 4.483 1.017 1.458 2.308 3.538 3.108 5.225v.044zm40.491 9.41l-.035-.025-.024-.012-.036-.024-.036-.011-.035-.024-.048-.013-.037-.024-.035-.023-.036-.013-.048-.024-.035-.012-.048-.024-.048-.024-.048-.012-.048-.023-.048-.013c1.77-.526 4.185-1.387 7.831-1.626 2.666-.179 4.578-.024 5.583.24 0 0-2.439 1.71-5.213 2.319-2.773.597-5.033.215-6.683.226a2.906 2.906 0 00-.418-.526c1.925.012 5.128-.478 6.288-.86-.001.001-2.798-.596-6.743.527zm.012-2.07v.026l-.012.011v.024l-.011.024-.013.035v.037l-.024.036-.011.048-.013.036-.024.06-.024.048-.023.048-.037.06-.024.06-.035.06-.036.061-.048.06-.048.071-.048.06-.048.06-.06.072-.059.06-.072.072-.072.06-.071.06-.072.06-.096.072-.083.048-.096.06-.095.06-.107.047c2.474-1.076 7.34-1.697 9.97-2.797 3.527-1.459 4.172-3.3 4.172-3.3-3.06-.084-5.547.67-7.447 1.256-2.236.68-5.63 1.948-6.825 2.486.454.013.944.133 1.35.42 1.662-.634 2.439-.91 3.945-1.34 1.195-.334 2.068-.395 2.81-.466 0 0-1.041.693-2.762 1.243-1.724.544-2.465.64-3.851.903zm.191-2.701v.012l-.012.024-.013.024-.011.013-.024.024-.012.024-.012.023-.012.024-.024.024-.012.024-.035.06-.037.06-.047.049-.036.059-.036.048-.012.036-.024.024-.011.024-.024.024-.012.024-.024.023-.012.024-.012.024-.012.013-.012.024-.024.012-.012.024c3.909-.658 8.213-3.61 9.54-5.451 1.339-1.829.957-4.567.957-4.567-1.291.263-4.089 2.678-4.818 3.407-.717.717-2.917 2.857-4.434 4.053l-.467 1.363c1.291-1.04 2.834-2.2 3.789-2.929.753-.561 1.841-1.339 2.953-1.721 0 0-1.016 1.315-1.829 1.96-.945.754-1.913 1.4-2.702 1.83-.694.379-1.064.606-2.475 1.287zm-.945-4.639v.565l-.037.442c.945-1.208 2.08-2.666 3.156-4.017.753-.92 1.375-1.47 2.068-1.925-.586 1.709-1.638 3.073-2.379 3.742-.742.681-1.817 1.829-2.869 2.535l-.096.334a4.962 4.962 0 01-.383.957c-.25.43-.573.849-.945 1.267a11.6 11.6 0 011.005-.466l.323-.143c2.881-1.518 5.751-4.698 6.897-6.898 1.184-2.212.694-4.77.383-6.144-1.315 1.112-3.204 3.3-4.017 4.483-1.016 1.459-2.307 3.539-3.108 5.225v.045h.002zM108.954 41.9l-.12.12-.119.12-.132.132-.131.143-.144.144-.143.154-.143.168-.144.167-.155.18-.155.179-.143.191-.155.191-.144.203-.155.215-.143.215-.143.216-.132.227-.131.227-.132.228-.119.239-.12.239-.095.251-.096.24-.096.262-.071.25-.072.252-.048.263-.048.263-.024.264-.011.274-.011.263.023.275s2.32-.73 3.287-2.438c.957-1.698 1.543-2.786 1.95-3.169a2.706 2.706 0 01-.766 0l-.215-.035c-.597 1.076-1.769 2.845-2.821 3.455 0 0-.263-1.434 2.834-4.327.048-.12.107-.251.191-.395a2.486 2.486 0 01-.969.143m31.903-16.032l-.12.251-.132.24-.131.25-.155.263-.083.12-.084.13-.096.132-.096.132-.095.131-.108.132-.12.131-.119.132-.12.144-.131.132-.132.143-.143.144-.156.143-.155.143-.168.144-.178.155-.179.143-.192.155-.191.155-.203.168-.215.155-.226.168-.24.155-.239.167c-.597.406-1.255 1.256-.753 2.439.502 1.195 1.434 2.869.872 3.527-.561.657-2.558.992-4.184.346 0 0-.346 1.028-.933 1.685 0 0 .287.562 1.22.275 0 0-.347.849.131 1.757 0 0 1.088-.19 1.554-1.195 0 0 .43.79 1.302 1.064 0 0 .729-.37.563-1.805 0 0 .526 1.28 2.163 1.495 0 0 .933-1.183-.287-2.774 0 0 .872.777 2.463.407 0 0 .25-.813-1.184-1.937 0 0 1.626-.072 2.247-1.434 0 0-.693-.849-2.378-.658 0 0 1.566-.348 1.913-2.213 0 0-1.124-.717-2.906.43 0 0 .311-.597 1.065-1.195.741-.57 1.649-2.233 1.339-4.672zm-6.527 18.829l.048-.059.036-.06.036-.06.047-.06.037-.059.035-.06.036-.047.036-.06.035-.06.024-.06.036-.06.024-.058.036-.048.024-.06.024-.06.024-.06c-.275 2.271-.372 3.801-1.602 5.272 0 0-.742-.98-.263-3.37a2.21 2.21 0 00.658-.312s-.275.97-.108 1.949c0-.002.442-.325.777-2.608zm2.116-.239l.024-.011.013-.024.011-.024.013-.011.023-.024.012-.024.024-.024.012-.024.024-.024.012-.035.047-.048.036-.06.036-.06.048-.06.035-.06.037-.059.035-.06.036-.048.036-.059.024-.035.011-.024.013-.024.012-.024c.107 1.315.454 4.782-.706 5.87 0 0-.8-.586-1.076-5.642.168.286.467.585.598.752 0 0-.191 1.602.383 2.737 0-.002.586-.444.227-2.87zm2.774 2.654l-.096-.108-.083-.13-.085-.144-.071-.155-.083-.156-.06-.168-.071-.178-.061-.18-.059-.191-.06-.192-.048-.191-.06-.203-.084-.395-.047-.191-.037-.191-.035-.192-.024-.178-.035-.18-.024-.179-.024-.167-.024-.155-.024-.144-.012-.132-.012-.13-.012-.109-.012-.048v-.047l-.012-.048v-.072l-.012-.024v-.095a3.306 3.306 0 01-.406-.299c-.06-.048-.12-.084-.168-.143 0 .13 0 .263-.023.395.154 2.104.323 4.28.98 5.367.645 1.064 1.829 1.614 1.829 1.614 1.112-1.984-.226-4.638-1.362-6.49a3.158 3.158 0 01-.419-.18c.393 1.42 1.134 3.106.836 4.41zm2.761-6.085v.167l-.012.035v.072l-.012.012v.047l-.012.012v.047l-.012.012v.036l-.012.012v.048l-.012.012c-.012.024-.024.084-.048.144.933.897 1.626 1.78 3.001 3.693 1.374 1.925 3.574 1.996 3.574 1.996-.215-1.554-.645-2.786-1.817-4.1-1.16-1.327-2.665-2.535-3.753-3.336a2.024 2.024 0 01-1.124.156c-.048 0-.072-.012-.107-.012.143.191.239.383.287.562.824.478 3.251 1.71 4.232 3.682 0 .003-1.531-.476-4.173-3.297zm1.734-1.924l-.096-.18a.957.957 0 00-.095-.143c.897.348 4.1 1.555 5.14 2.092 1.041.538 2.535 1.758 3.348 4.244 0 0-2.165.192-3.945-1.29-1.782-1.47-3.861-3.54-4.758-4.196a.957.957 0 00.215-.227s2.415 2.14 4.973 3.06c0 0-.55-.98-1.567-1.709-1.219-.875-2.14-1.162-3.215-1.651zm1.828-1.472l-.012-.023-.012-.036-.012-.035-.024-.024-.012-.035-.012-.037-.012-.023-.012-.036c1.052.227 3.706.538 4.889.897 1.172.359 3.312 1.231 4.579 3.647 0 0-1.865.574-5.379-1.076-3.503-1.65-4.603-1.997-5.272-2.176a2.435 2.435 0 001.111-.334c1.399.621 3.263 1.362 5.129 1.41 0 0-.921-.645-1.888-1.052a23.3 23.3 0 00-3.061-1.066zm-.081-1.745l-.059.036-.061.024-.071.024-.061.036-.059.011-.06.024-.059.024-.06.013-.06.023-.072.013-.059.012-.072.013-.071.012-.036.013h-.084l-.035.012h-.037l-.047.013c.239.156.478.358.693.621 1.232.359 3.336.741 6.814.993 3.478.263 5.332-.383 5.332-.383-1.208-.74-3.144-1.494-4.447-1.745-1.303-.252-4.734-.215-6.241-.43a2.982 2.982 0 01-.502.347c1.267.12 3.969.239 5.356.932-.001-.003-2.559.343-5.942-.638z" fill="#0055A5"/><path d="M134.92 40.06l-.036-.048-.024-.013-.024-.024-.024-.024-.011-.011-.024-.024-.012-.012-.024-.024-.012-.024-.024-.013-.012-.024-.024-.012-.012-.024-.024-.012-.012-.024c-.191.239-.789.992-1.088 1.745a22.443 22.443 0 00-.574 1.996c-.131.514-.478 1.542-.693 1.9 0 0 .945.132 1.649-.704.694-.801.945-1.614 1.041-2.45a8.75 8.75 0 00-.036-2.175zm1.505.12l-.011.024-.024.024-.013.012-.011.024-.024.024-.012.012-.012.011-.024.024-.012.011-.012.012-.012.012-.024.024-.012.012-.012.012h-.011l-.013.013-.011.011-.012.011-.012.013h-.013l-.011.012h-.012l-.012.012-.012.011h-.012v.012h-.024v.012l-.119.06-.144-.036c-.108-.048-.215-.096-.323-.13-.132.37-.191.561-.228.896-.048.43-.131 1.112.037 1.674.202.682.597 1.088.824 1.363 0 0 .633-.694.8-1.255.192-.585.263-1.279.024-1.985a2.678 2.678 0 00-.501-.932zm2.154.06l-.06-.013h-.059l-.06-.013-.059-.011-.109-.024-.107-.024-.107-.035-.095-.024-.096-.036-.096-.036-.095-.048-.083-.035-.084-.048-.084-.036-.072-.048-.084-.048-.071-.048-.06-.048c-.083.216-.215.526-.119.944.095.43.395.921.824 1.256.634.515 1.494.992 2.439.837-.001 0 .226-.706-1.663-2.463zm.716-1.185l-.011.06-.013.06-.011.049v.06l-.013.048-.011.048-.024.06-.013.048-.011.047-.012.037-.024.048-.012.047-.012.037-.024.036-.013.035-.023.037-.012.035-.012.036-.024.024-.012.024-.012.036-.012.024-.024.012-.012.024-.012.024-.012.011v.013l-.011.012-.013.013v.012h-.011v.013c.215.263 1.028 1.637 2.701 1.41 0 0 .443-.945-.669-1.686-.753-.518-1.111-.614-1.626-.794zm-.154-1.183l.083.024.095.024.096.012.096.013.095.012.096.013h.107l.107.011h.107l.12-.011h.108l.12-.013.06-.012h.071l.06-.013.059-.012.06-.012.072-.013.059-.012.061-.024.191-.035.072-.192c.848.706 1.876.825 2.223 1.459 0 0-.43.789-1.542.645-1.112-.132-1.949-.645-2.546-1.398a3.554 3.554 0 00-.13-.466zm1.935-.98l-.012-.024-.012-.024-.036-.048-.024-.047-.024-.06-.035-.048-.024-.06-.036-.06-.036-.06-.024-.06-.035-.072-.024-.036-.024-.024-.012-.036-.024-.036-.024-.036-.024-.024-.024-.036-.024-.035-.036-.036-.024-.035-.036-.036-.023-.024a5.524 5.524 0 012.258.024c1.029.19 2.081.43 2.607 1.984 0 0-.67.574-1.865.323-1.005-.202-1.901-.645-2.403-1.374zm.43-1.698l.048-.047.047-.036.048-.048.048-.047.048-.048.048-.06.036-.048.048-.048.035-.06.048-.06.036-.06.036-.061.036-.072.036-.06.035-.072.036-.072.084-.19c.896-.36 1.817-.55 2.725-.216.909.346 1.148.741 1.374 1.076 0 0-1.004.848-2.151.884-1.159.026-2.235-.308-2.701-.655zm-.264-1.829l-.059-.024-.036-.012h-.024l-.036-.012-.024-.012-.035-.013-.037-.012h-.035l-.024-.013-.035-.012h-.037l-.035-.013-.036-.012h-.036l-.036-.012c.406-.347.776-.873.969-1.674.43.096 1.386.096 1.817-.06.43-.168 1.267-.18 1.924.263 0 0-.215 1.136-1.709 1.53-1.388.375-1.914.28-2.476.088zm.527-2.235l-.192-.132c-.024-.012-.358-.215-.921-.252.478-.37 1.615-1.326 2.415-1.769.885-.49 2.343-1.16 3.084-1.256 0 0-.693 1.829-1.506 2.571-.837.766-1.422 1.053-2.88.838zm-1.494-.85l.072-.084.06-.095.06-.096.06-.095.059-.109.06-.107.06-.108.048-.12.047-.119.06-.12.048-.119.047-.132.036-.13.048-.133.036-.143.048-.132c.155-.622.55-2.128.776-2.535.227-.395 1.052-1.757 2.654-2.188 0 0 .419 1.78-.382 3.215-.704 1.223-2.127 2.514-3.897 3.35zm-8.895 8.345l-.048.036-.037.036-.035.036-.036.024-.036.036-.036.024-.035.036-.036.024-.048.024-.047.037-.013.012-.024.012-.024.013-.024.024-.035.012-.024.013-.024.011-.024.024-.035.013-.024.012-.036.024-.036.012s-.502.98.107 2.152a29.896 29.896 0 011.399 3.06s.334-.047.705-1.9c.251-1.243.574-1.566.897-1.984a2.417 2.417 0 01-.681.227l-.24.06-.119-.24a2.4 2.4 0 01-.263-1.483c-.574.024-.896-.274-1.004-.418-.013-.024-.013-.024-.037-.035l-.047.066z" fill="#0055A5"/><path d="M141.316 41.9l.119.12.12.12.131.132.131.143.143.144.131.154.156.168.144.167.156.18.143.179.156.191.155.191.143.203.144.215.156.215.131.216.143.227.131.227.131.228.12.239.107.239.108.251.096.24.083.262.083.25.06.252.06.263.047.263.024.264.012.274v.263l-.012.275s-2.331-.73-3.287-2.438c-.956-1.698-1.542-2.786-1.948-3.169a2.7 2.7 0 00.765 0l.215-.035c.598 1.076 1.758 2.845 2.81 3.455 0 0 .275-1.434-2.821-4.327a2.152 2.152 0 00-.203-.395c.287.107.609.154.981.143m-17.968-23.084v-.024l.012-.024.012-.012.012-.024.024-.012.024-.024.024-.013.035-.024.036-.012.036-.024.048-.012.047-.013.048-.024.059-.012.061-.012.059-.012.06-.013.06-.011.071-.012.072-.013.072-.012.083-.012.072-.012h.083l.084-.013.083-.012h.179l.083-.013h.276c1.004 0 1.817.18 1.817.395 0 .203-.813.383-1.817.383-1.002.005-1.815-.174-1.815-.377zm-6.181 2.092v-.013l.011-.012v-.012l.012-.012.012-.012.024-.012h.012l.024-.012.023-.013.024-.012h.024l.037-.013.035-.012.024-.013h.048l.036-.012h.035l.048-.011.048-.013h.035l.048-.012h.107l.048-.013h.108l.06-.012h.298c.633 0 1.172.095 1.172.215s-.539.203-1.172.203c-.655.005-1.181-.078-1.181-.197zm8.356-1.255v.084l-.012.012v.024l-.012.013v.024l-.013.012v.013l-.011.012-.011.024-.013.012-.011.013-.013.012-.011.013-.013.012-.011.013-.013.012-.011.012-.013.012h-.011l-.024.011-.012.013h-.012l-.024.012h-.036l-.012.012h-.06a.362.362 0 01-.358-.37c0-.18.167-.348.358-.348a.348.348 0 01.359.341zm-2.308-1.219l-.059-.144-.048-.13-.059-.12-.048-.131-.048-.12-.048-.131-.06-.12-.035-.108-.048-.12-.048-.107-.035-.108-.048-.107-.036-.108-.036-.096-.035-.096-.037-.095-.035-.096-.024-.083-.024-.084-.036-.085-.024-.071-.024-.072-.011-.072-.024-.071-.013-.06-.011-.06-.013-.06-.011-.048-.012-.048v-.119c.012-.216.263-.372.503-.443.25-.072.454-.096.621.024.311.25.609 2.187.705 3-.3.06-.48.109-.839.289zm1.114-.313l.024-.012h.083l.06-.012h.179l.119-.012c-.108-.777-.371-2.057-.526-2.57-.155-.515-.358-.872-.693-.97 0 0 .263.707.407 1.435.143.732.239 1.448.347 2.142zm-1.926 2.583l.072-.013.059-.023.06-.024.06-.024.059-.024.072-.036.059-.024.06-.037.06-.036.047-.035.061-.037.059-.036.048-.036.059-.036.048-.035.048-.048.048-.036.036-.036.048-.036.036-.024.035-.035.037-.036.035-.024.037-.035.023-.024.024-.012.012-.024.024-.024.011-.012h.013v-.012c-1.074.157-1.35.874-1.35.874z" fill="#0055A5"/><path d="M123.37 20.634l-.096.047-.083.037-.084.048-.096.036-.084.036-.083.036-.096.024-.083.035-.084.024-.084.012-.083.024-.084.024-.072.013-.083.011-.072.013-.071.012h-.072l-.059.012h-.06l-.06.013h-.383c.203-.371.395-.717.969-1.124.586-.419 1.53-.526 1.901-.478-.086.284-.468.882-.898 1.145zm-.204.488c-.694.323-2.846.358-4.006.418h-.747l-.089-.03h-.12l-.09-.029h-.09l-.09-.03-.09-.03h-.089l-.09-.029h-.09l-.09-.03h-.059l-.09-.03-.06-.029h-.058l-.06-.03-.06-.03h-.089l-.03-.029h-.03l-.06-.03h-.03c.132 2.535 1.854 2.69 1.854 2.69-.024-.202 0-.538 0-.538.537.503 1.644.867 1.644.867a1.852 1.852 0 00-.12-.568c.467.274.747.268.747.268-.048-.358-.269-.776-.269-.776.324.418.718.449.718.449.071-.203-.061-.718-.061-.718.168.203.479.741 1.435.957.98.202 1.405-.36 1.405-.36-.933.061-1.823-.836-1.823-.836.502-.191.688-.537.688-.537-.3-.252-.598-.27-.598-.27.549-.255.687-.69.687-.69zm-3.288.956v.09s-1.494.006-1.554.747c-.24-.156-.359-.442-.419-.777.001 0 1.065.06 1.973-.06zm-3.285-.727l.011.108.013.096.011.108.013.095.011.108.024.095.024.096.024.095.024.096.024.096.024.083.036.084.024.084.036.084.036.072.036.072s-.681-.502-.848-.944c-.169-.444-.216-.732.477-.528zm-2.005.488c-.295.032-.568.155-.747.418-.347.514-.221 1.494.508 1.912 0 0 1.094-.95 2.421-.03 0 0 .292-.172.986-.328v-.03h-.03v-.03l-.03-.03-.029-.029h-.03v-.03l-.03-.03-.029-.029-.03-.03-.03-.03-.029-.029h-.032l-.029-.06h-.03l-.03-.06h-.029l-.03-.03-.059-.03-.03-.03-.03-.029-.059-.03-.029-.03-.03-.029-.06-.03h-.033l-.059-.03-.03-.029c-.406-.179-1.243-.43-1.494-1.195a2.398 2.398 0 00-.808-.063zm.629 1.015c.155 0 .299.144.299.3v.059h-.03v.06h-.029v.059h-.03v.03h-.03v.029h-.059v.03h-.062l-.03.03h-.029c-.155 0-.269-.144-.269-.3-.001-.153.113-.297.269-.297zm2.69 1.127l.012.012.012.012v.012h.012l.012.024.012.013.024.024.012.036.024.024.024.024.024.035.024.036.036.024.024.037.035.035.024.048.037.035.071.072.06.072.071.084.036.036.036.036.035.036.037.035.035.024.035.037.037.023.035.036s-1.793-.024-2.235 1.53c0 0-.61-.956-.167-1.567.478-.658.932-.753 1.566-.885z" fill="#0055A5"/><path d="M119.869 24.351l.013.012h.023l.012.013h.036l.024.012.024.013h.024l.035.011.024.013h.037l.024.012.036.012.059.012.06.024.072.011.024.013.035.012.024.013h.036l.024.012.024.013h.024l.023.012h.024l.024.012s0-.334-.011-.49c.179.036.382.096.574.12 0 0 .573 1.267 1.028 1.781 0 0 .024.3-.227.717 0 0-.335-.74-.909-1.362-.324-.34-.539-.52-1.22-.998zm-1.519-.263h.012l.024.013h.035l.024.012.037.011.035.013.048.012.036.012.048.024.048.011.048.013.06.024.048.012.059.024.048.024.059.024.12.047.119.048.12.048.107.048.059.036.06.024.048.024.059.036.048.023.048.024.048.036.035.024c.563.406.945.86.885 1.66 0 0-.443-.632-.945-.92-.392-.215-1.109-.837-1.48-1.387zm.013-5.81h.036l.012.013h.06l.024.012h.036l.024.012h.024l.011.013h.024l.024.012.024.013.011.011.024.013.013.012.024.013.011.012.024.012.013.013.011.012.012.024.012.013.012.024.012.011v.025l.012.011v.038l.012.012v.037c0 .275-.431.933-.55 1.22-.12-.287-.538-.944-.538-1.22 0-.275.323-.358.49-.358h.096v-.01zm-.372 2.141l-.011-.048-.013-.036v-.047l-.011-.048-.012-.048-.012-.048-.012-.06v-.048l-.012-.06-.012-.06-.024-.12-.036-.119-.023-.132-.024-.12-.024-.059-.013-.06-.011-.047-.024-.06-.012-.049-.023-.047-.013-.048-.024-.048-.024-.048-.011-.035-.024-.037-.024-.036-.024-.024-.012-.024c-.239-.204-.574-.227-.729-.215-.167.012-.347.18-.275.406.073.227.813 1.34.909 1.47.166-.021.13-.022.56-.045zm.646 0l.011-.048.013-.036v-.047l.011-.048.013-.048.011-.048.012-.06.012-.048.012-.06.012-.06.024-.12.024-.119.024-.132.036-.12.011-.059.013-.06.024-.047.011-.06.024-.049.012-.047.024-.048.012-.048.024-.048.011-.035.024-.037.024-.036.024-.024.012-.024c.24-.204.562-.227.729-.215.168.012.335.18.275.406-.072.227-.813 1.34-.909 1.47-.165-.021-.141-.022-.56-.045zm.476-3.479h-.573v-.634h-.466v.634h-.574v.407h.574v.74h.466v-.74h.573v-.407zm-6.967 4.1v-.179l.011-.048v-.083l.012-.024v-.024c.036-.31.048-.585.012-.8-.419.156-.706.263-1.267 1.183 0 0 .909-.562 1.232-.024zm.789 1.47v-.024l.013-.036v-.084l.011-.036v-.035l.012-.048.012-.035v-.048l.012-.036.012-.048v-.048l.011-.048.013-.06.012-.048.024-.096.024-.108.035-.108.024-.107.037-.108.035-.108.036-.107.012-.048.024-.048c.239-.621.083-1.53-.191-2.067-.263-.538-.419-1.041-.372-1.59 0 0-.537.179-.848.37-.048.646.323 1.28.502 1.639.204.43.168.98.12 1.326a2.646 2.646 0 00.43 1.794zm.06-4.889v-.036h-.013v-.195l.013-.013v-.061l.011-.011v-.025l.012-.012s.848-.824 1.554-.969c.454-.095.729.108.872.216 0 0-.263-.024-.634.287-.382.299-.848.681-1.219.777-.345.09-.429.066-.596.042zm2.511-1.028l.059.06.06.06.06.06.048.06.059.06.048.06.012.024.024.036.024.024.024.035.012.037.024.023.012.037.024.024.012.024.012.036.012.024.012.035.011.024.013.036.011.023v.037l.013.024v.084c-.013.3-.359 1.063-.55 1.35-.18.287-.443.67-.419 1.124.012.24.179.478.371.67 0 0-1.04-.251-1.159-.885-.12-.574.12-.98.287-1.303.155-.3.645-.992.753-1.28.119-.264.167-.48.131-.623zm6.072 7.221l.036.13.048.144.048.131.048.132.048.131.06.132.059.132.06.12.06.12.059.13.06.12.06.108.071.12.06.107.06.107.072.096c.31.49.502 1.304.478 1.578 0 0 .466-1.04.227-1.77-.179-.573-.693-1.41-1.614-1.768zm1.158.239h.096l.024.012h.132l.035.013h.072l.048.012h.035l.048.012h.036l.048.013.048.011.035.013.048.012h.036l.047.024.037.013.048.011.035.012.036.024.036.013.035.024.036.012c.431.287.837.897.993 1.638 0 0-.73-.12-1.076-.478-.358-.352-.789-.89-.968-1.391zm-3.681 1.291h-.072l-.024.011h-.035l-.024.013h-.048l-.024.012-.048.012-.047.012h-.048l-.048.012-.048.013-.048.012-.024.013h-.023l-.024.012h-.024l-.012.013h-.048l-.011.012s.609.179.909.419c.25.215.478.55.585 1.1.156.776.61 1.613.741 1.865l.06-.012c-.095-.538.239-1.638.335-1.793 0 0-.491-.31-.705-.622-.169-.232-.445-.615-1.245-1.104zm3.158 1.661l.023.036.013.037.024.047.024.048.024.037.011.047.024.06.036.049.024.047.024.06.048.109.048.108.012.06.024.06.024.071.012.06.023.06.013.06.011.072.013.06.011.072.013.071v.203l-.013.072v.06l-.011.072-.013.072-.024.071c-.215.753-.693 1.076-1.004 1.71 0 0-.239-1.148-.191-2.033.059-.9.382-1.235.777-1.558zm1.372.024v.012l.012.013v.012l.012.013v.011l.012.012.012.012v.024l.012.024.024.035.023.048.024.06.036.06.024.06.036.072.035.06.037.072.024.083.035.072.036.071.048.084.072.168.06.156.036.083.036.072.035.071.024.084.024.072.024.06.024.072.024.06.011.06.024.049c.12.538 0 .884-.239 1.206-.239.324-.645.682-1.028 1.352 0 0-.43-.574-.49-.873-.048-.31.036-1.027.131-1.327.096-.3.468-1.282.79-2.275zm.36 4.388l-.011.012h-.013v.012l-.011.012-.012.012-.012.024-.036.024-.024.036-.036.036-.036.048-.035.036-.036.048-.036.048-.048.06-.048.048-.035.06-.048.047-.096.12-.083.107-.048.06-.036.06-.048.06-.035.048-.036.06-.036.047-.035.048-.037.048-.035.048-.024.048-.024.035-.012.035-.012.024-.012.013v.012l-.012.013c-.107.299-.299.837-.047 1.22.274.382.848.992 1.362 1.255 0 0-.549-.873-.502-1.59.036-.466.394-.873.466-1.148.058-.278.011-.756-.181-1.186zm-1.626-.55l.011.012.013.024.011.013.013.023.024.024.011.024.012.024.012.024.012.037.024.023.012.037.012.024.012.036.011.024.036.072.024.071.024.072.024.072.024.072.024.071v.048l.011.036.013.036v.084l.011.036c.024.407-.035.741-.263 1.35-.274.753-.717 1.603-.921 1.985 0 0-.395-.561-.61-1.052 0 0 .61-.837.861-1.422.313-.697.432-1.343.552-1.88zm-.274-.335v.012l-.012.012v.073l-.012.047-.012.048-.011.072-.013.072-.024.084-.011.083-.024.096-.024.108-.035.107-.024.108-.037.12-.035.13-.048.12-.036.131-.048.144-.059.13-.048.144-.06.144-.06.143-.071.144-.072.143-.084.143-.072.144-.096.155-.084.143-.096.131-.095.144-.107.143c-.777.98-1.411 1.328-1.829 1.328-.634 0-1.267-.539-1.482-1.137-.215-.597-.144-1.541.263-1.864 0 0 .382 1.171 1.183 1.219.92.049 2.091-.98 3.275-2.964z" fill="#0055A5"/><path d="M121.099 29.72l.011.036v.035l.013.036v.036l.024.071.011.085v.083l.013.084.011.084v.276l-.011.095-.013.096v.096l-.024.095-.011.096-.024.095c-.096.383-.335.885-.777 1.172-.395.239-1.303.3-1.662-.574 0-.002 1.674.13 2.439-1.998zm2.738 7.89l.024.047.024.06.035.06.024.06.037.06.035.06.048.06.035.06.084.12.084.12.095.12.083.119.085.12.047.047.036.06.035.06.037.06.035.048.036.06.024.047.024.06.024.048.024.048.012.048.013.048v.047l.011.037c-.024 1.22-.562 1.96-.681 2.367 0 0-.968-.777-1.136-1.661-.095-.459.001-1.821.766-2.49zm-1.087.86l.012-.035.012-.037.012-.035.024-.036.012-.048.024-.036.012-.047.024-.048.024-.048.024-.06.024-.047.023-.048.048-.108.06-.107.06-.12.059-.108.036-.048.024-.047.036-.048.036-.048.035-.048.036-.048.036-.048.036-.036.036-.036.035-.036.037-.036.035-.036s.538-1.554-1.159-2.51c0 0-.706.92-.885 1.805-.191.873.741 1.399 1.172 2.188zm-2.128-3.945l-.061.072-.059.06-.048.072-.059.071-.06.06-.06.071-.071.072-.061.06-.059.06-.059.072-.037.024-.035.024-.024.036-.036.024-.024.024-.035.024-.024.024-.036.013-.024.023-.036.024-.024.012-.035.012s-.108.694-.037 1.16c.084.681.526 1.386.718 1.912 0 0 .741-.98.824-1.554.084-.574.072-1.04.096-1.315 0-.002-.407-.671-.634-1.137zm-1.974 3.347l-.024-.035-.024-.036-.024-.048-.024-.037-.036-.06-.024-.048-.035-.06-.037-.06-.035-.07-.037-.061-.035-.072-.035-.084-.037-.072-.035-.084-.048-.072-.036-.083-.072-.167-.072-.18-.06-.179-.024-.083-.035-.084-.024-.096-.024-.084-.012-.083-.024-.096-.013-.084-.012-.083v-.084l-.012-.085s.849.455 1.554.12c0 0 .085 1.124-.047 1.495-.108.313-.251.492-.597.755zm.192.239l.024-.012.012-.011.012-.024.024-.013.012-.012.024-.013.012-.024.024-.012.024-.024.012-.012.047-.048.037-.037.048-.047.047-.037.036-.048.048-.036.024-.024.011-.011.024-.024.024-.024.012-.013.012-.023.024-.013.012-.024.012-.012.012-.024s.561 1.028.657 1.327c0 0-.274.06-.585-.155a3.88 3.88 0 01-.682-.57zm2.594-.61l-.011.013v.012l-.013.024v.013l-.011.023-.013.013-.011.024-.013.024-.024.047-.024.048-.036.06-.035.047-.037.06-.035.072-.048.06-.036.072-.048.06-.048.072-.095.132-.096.144-.048.06-.048.072-.035.059-.048.06-.048.06-.036.06-.035.049-.048.047-.024.048-.036.036-.012.012-.011.024-.013.012-.011.013-.013.012-.011.013-.013.012-.011.012s.072.454.406 1.1a4.718 4.718 0 001.052 1.338s.55-.968.718-1.386c.191-.49.167-.98.083-1.16-.192-.425-.837-1.034-1.124-1.573zm1.351 3.277l.011.047.024.036.024.048.024.036.036.048.023.048.037.036.024.048.035.048.036.06.072.096.06.107.072.095.072.108.072.107.06.107.024.06.035.048.024.059.024.048.024.048.024.06.012.048.012.059.024.048v.048c.071.406.012.74-.096 1.028-.12.274-.478.824-.717 1.243 0 0-.825-.776-1.004-1.326-.132-.42-.084-1.005.119-1.387.191-.371.622-.765.813-1.16zm-2.329-.108l.024.047.024.048.024.036.024.047.024.048.023.037.06.083.06.096.059.084.072.084.059.083.061.083.059.084.059.084.024.035.024.048.024.036.024.048.024.035.024.036.012.048.024.036.011.036.013.048c.131.467.179.777-.048 1.339-.215.49-.454.776-.538 1.076 0 0-.67-.86-.789-1.22-.108-.37-.144-.956-.012-1.326.145-.383.384-.873.551-1.22zm3.286 3.3v.01h-.013v.012l-.011.013-.012.012-.012.011-.011.012-.013.024-.011.012-.024.024-.013.024-.024.024-.035.048-.036.06-.048.06-.048.06-.048.071-.048.072-.06.072-.048.084-.059.083-.048.083-.059.084-.048.084-.048.095-.047.084-.048.084-.048.095-.035.084-.037.083-.035.095-.024.085-.036.083-.012.072-.012.083-.012.035v.108c.036.921.646 1.519.729 2.093 0 0 .61-.681.837-1.136.25-.526.454-.956.382-1.541-.072-.586-.227-.957-.825-1.542zm-2.117-.144l.012.024.024.036.023.036.024.036.024.035.024.048.024.048.024.047.036.048.024.048.024.06.036.047.023.06.024.06.048.12.024.071.024.06.024.06.024.06.011.072.024.059.013.06.011.06.013.071.011.06v.228l-.011.06-.013.047c-.143.539-.717 1.291-.908 1.626 0 0-.455-.932-.55-1.363-.095-.43-.011-1.123.909-1.983zm11.502-22.929v-.013l-.012-.012v-.012l-.012-.012-.012-.012-.012-.012h-.023l-.024-.012-.024-.013-.024-.012h-.024l-.036-.013-.024-.012-.036-.013h-.035l-.048-.012h-.036l-.048-.011-.035-.013h-.048l-.048-.012h-.096l-.059-.013h-.108l-.048-.012h-.298c-.646 0-1.172.095-1.172.215s.526.203 1.172.203c.644.005 1.17-.078 1.17-.197zm-7.987-3.598l.012-.048.012-.06.013-.06.011-.06.024-.06.024-.06.024-.072.024-.072.024-.071.024-.072.059-.144.059-.154.06-.157.06-.143.06-.156.024-.072.035-.071.024-.072.013-.072.024-.06.023-.072.012-.06.011-.06.013-.06.011-.06v-.095a.693.693 0 10-1.386 0c0 .49.609 1.613.681 2.139h.025v.004zm1.937 1.124l.059-.144.06-.13.048-.12.06-.131.048-.12.048-.131.048-.12.048-.108.048-.12.036-.107.048-.108.035-.107.048-.108.036-.096.036-.096.036-.095.024-.096.036-.083.024-.084.024-.085.024-.071.024-.072.024-.072.011-.071.024-.06.013-.06.011-.06v-.048l.012-.048v-.119c0-.216-.263-.372-.49-.443-.263-.072-.467-.096-.634.024-.311.25-.598 2.187-.717 3 .31.06.502.109.848.289zm-1.101-.313l-.037-.012h-.083l-.06-.012h-.179l-.059-.012h-.048c.095-.777.358-2.057.514-2.57.168-.515.359-.872.694-.97 0 0-.251.707-.394 1.435a36.292 36.292 0 00-.348 2.142zm.563 1.71h.012v.013h.012v.012h.012l.012.024.024.023.024.013.024.024.035.035.024.024.036.036.036.035.047.024.037.036.048.036.047.036.048.048.048.035.06.037.048.035.059.036.048.037.06.035.06.036.059.037.06.023.06.037.059.024.072.024.06.024.059.024.06.012c0-.002-.274-.72-1.35-.874z" fill="#0055A5"/><path d="M125.99 19.486h.072l.048-.012h.143l.048.012h.119l.06.012h.059l.06.013.06.012h.071l.06.013.071.011.061.024.071.013.072.012.06.024.072.024.072.012.06.024.072.024.072.024.059.035.059.024.072.037.06.035.059.024.048.048.06.035c.586.407.777.753.98 1.124 0 0-1.052.083-1.972-.454-.442-.265-.825-.863-.908-1.15zm1.12 1.636s.12.436.657.687c0 0-.293.018-.568.269 0 0 .179.346.657.537 0 0-.879.897-1.823.837 0 0 .436.562 1.405.359.969-.215 1.256-.754 1.435-.957 0 0-.12.514-.061.718 0 0 .413-.03.747-.449 0 0-.25.418-.299.777 0 0 .269.005.747-.27 0 0-.107.258-.12.569 0 0 1.124-.364 1.674-.867v.388l-.03.03v.119s1.722-.157 1.853-2.691c0 0-1.13.418-2.301.359-1.146-.056-3.292-.092-3.973-.415zm3.257.956c.909.12 2.003.06 2.003.06v.06h-.03v.06l-.029.06v.06l-.03.03v.06l-.029.029v.059h-.03v.03l-.03.03v.029l-.029.03-.03.03v.029h-.03l-.029.03v.03h-.033l-.03.029v.03h-.029l-.03.03-.029.029c-.06-.741-1.555-.747-1.555-.747v-.087h-.001zm3.308-.727l-.013.108-.011.096-.013.108-.011.095-.024.108-.012.095-.024.096-.024.095-.024.096-.024.096-.035.083-.024.084-.036.084-.024.084-.036.072-.035.072s.681-.502.848-.944c.167-.444.204-.732-.478-.528zm1.445.488l-.06.03h-.059l-.061.029h-.059c-.25.765-1.105 1.017-1.524 1.195-.443.216-.867.718-.867.718.694.156 1.017.329 1.017.329 1.326-.92 2.42.03 2.42.03.718-.42.867-1.4.508-1.913l-.059-.06-.03-.06-.029-.03-.061-.03-.029-.029-.06-.03-.029-.03-.059-.029-.06-.03-.029-.03h-.06l-.059-.029h-.06l-.03-.03h-.661v-.001zm-.09 1.015h.089v.03h.06v.03h.029l.03.03v.029h.03v.03h.029v.119l.03.029c0 .156-.144.3-.3.3-.154 0-.268-.144-.268-.3.003-.153.116-.297.271-.297zm-2.669 1.127h-.012v.012h-.012v.012l-.012.012-.012.024-.023.013-.012.024-.024.036-.024.024-.012.024-.036.035-.024.036-.023.024-.037.037-.024.035-.035.048-.024.035-.072.072-.071.072-.06.084-.036.036-.035.036-.037.036-.035.035-.036.024-.036.037-.035.023-.037.036s1.782-.024 2.236 1.53c0 0 .61-.956.168-1.567-.479-.658-.934-.753-1.568-.885z" fill="#0055A5"/><path d="M130.402 24.351h-.011v.012h-.037v.013h-.048l-.011.012-.024.013h-.036l-.024.011-.024.013h-.036l-.024.012-.036.012-.06.012-.072.024-.059.011-.035.013-.024.012-.037.013h-.024l-.035.012-.024.013h-.024l-.024.012h-.024l-.012.012s-.011-.334.012-.49c-.178.036-.395.096-.586.12 0 0-.561 1.267-1.016 1.781 0 0-.023.3.227.717 0 0 .323-.74.909-1.362.323-.34.538-.52 1.219-.998zm1.517-.263h-.023l-.024.013h-.024l-.036.012-.036.011-.035.013-.037.012-.048.012-.047.024-.048.011-.048.013-.048.024-.06.012-.048.024-.06.024-.059.024-.12.047-.12.048-.107.048-.119.048-.059.036-.048.024-.061.024-.047.036-.048.023-.048.024-.048.036-.036.024c-.562.406-.945.86-.896 1.66 0 0 .454-.632.956-.92.394-.215 1.111-.837 1.482-1.387zm-.013-5.81h-.036l-.011.013h-.061l-.024.012h-.035l-.024.012h-.024l-.011.013h-.024l-.024.012-.024.013-.012.011-.024.013-.012.012-.024.013-.012.012-.024.012-.012.013-.012.012-.011.024-.013.013-.011.024-.013.011v.025l-.011.011v.038l-.013.012v.037c0 .275.431.933.55 1.22.12-.287.538-.944.538-1.22 0-.275-.324-.358-.502-.358h-.084v-.01zm.373 2.141l.012-.048v-.036l.011-.047.013-.048v-.048l.011-.048.013-.06.011-.048.013-.06.011-.06.024-.12.024-.119.024-.132.036-.12.012-.059.023-.06.013-.047.011-.06.024-.049.013-.047.024-.048.024-.048.012-.048.024-.035.024-.037.011-.036.024-.024.024-.024c.227-.204.562-.227.73-.215.167.012.335.18.274.406-.071.227-.813 1.34-.908 1.47-.168-.021-.144-.022-.562-.045zm-.661 0v-.048l-.011-.036-.013-.047-.011-.048v-.048l-.013-.048-.011-.06-.012-.048-.012-.06-.012-.06-.024-.12-.024-.119-.036-.132-.023-.12-.024-.059-.012-.06-.012-.047-.024-.06-.012-.049-.024-.047-.012-.048-.024-.048-.024-.048-.011-.035-.024-.037-.024-.036-.013-.024-.023-.024c-.227-.204-.55-.227-.729-.215a.31.31 0 00-.263.406c.059.227.8 1.34.908 1.47.167-.021.131-.022.549-.045zm-.464-3.479h.562v-.634h.478v.634h.574v.407h-.574v.74h-.478v-.74h-.562v-.407zm-6.922-3.766h.587v-.633h.454v.633h.585v.407h-.585v.74h-.454v-.74h-.587v-.407zm13.891 7.866v-.083l-.011-.048v-.143l-.013-.013v-.072a2.661 2.661 0 01-.024-.8c.419.156.706.263 1.268 1.183 0 0-.909-.562-1.22-.024z" fill="#0055A5"/><path d="M137.335 22.51l-.012-.024v-.084l-.011-.036v-.036l-.013-.035v-.048l-.011-.035v-.048l-.013-.036-.011-.048-.012-.048-.012-.048-.012-.06-.012-.048-.024-.096-.024-.108-.024-.108-.036-.107-.024-.108-.035-.108-.036-.107-.012-.048-.024-.048c-.227-.621-.096-1.53.179-2.067.274-.538.43-1.041.371-1.59 0 0 .55.179.848.37.048.646-.323 1.28-.489 1.639-.216.43-.18.98-.12 1.326a2.652 2.652 0 01-.431 1.794zm-.06-4.889v-.244l-.012-.012v-.06l-.012-.013v-.024s-.861-.824-1.567-.969a.933.933 0 00-.848.216s.239-.024.622.287c.382.299.848.681 1.207.777.358.09.43.066.61.042zm-2.523-1.028l-.061.06-.059.06-.048.06-.059.06-.048.06-.048.06-.024.024-.024.036-.023.024-.013.035-.024.037-.024.023-.012.037-.012.024-.024.024-.012.036-.011.024-.013.035-.011.024v.036l-.013.023-.011.037v.108c0 .3.358 1.063.537 1.35.18.287.467.67.431 1.124-.024.24-.179.478-.371.67 0 0 1.04-.251 1.159-.885.119-.574-.131-.98-.3-1.303-.155-.3-.633-.992-.752-1.28-.107-.264-.166-.48-.13-.623zm-6.06 7.221l-.048.13-.048.144-.036.131-.059.132-.048.131-.048.132-.059.132-.061.12-.059.12-.06.13-.059.12-.072.108-.06.12-.06.107-.071.107-.06.096c-.323.49-.526 1.304-.478 1.578 0 0-.478-1.04-.239-1.77.19-.573.692-1.41 1.625-1.768zm-1.172.239h-.085l-.023.012h-.131l-.037.013h-.083l-.035.012h-.048l-.037.012h-.047l-.036.013-.048.011-.047.013-.036.012h-.048l-.047.024-.037.013-.035.011-.048.012-.035.024-.037.013-.035.024-.036.012c-.419.287-.837.897-.981 1.638 0 0 .718-.12 1.076-.478.345-.352.788-.89.956-1.391zm3.693 1.291h.083l.012.011h.036l.024.013h.048l.023.012h.024l.024.012.048.012h.048l.048.012.048.013.047.012.024.013h.024l.024.012h.024l.012.013h.036l.024.012s-.61.179-.921.419c-.251.215-.478.55-.574 1.1-.155.776-.609 1.613-.753 1.865l-.048-.012c.084-.538-.25-1.638-.334-1.793 0 0 .478-.31.705-.622.156-.232.443-.615 1.244-1.104zm-3.157 1.661l-.024.036-.011.037-.024.047-.024.048-.024.037-.024.047-.024.06-.024.049-.024.047-.024.06-.047.109-.048.108-.024.06-.024.06-.024.071-.011.06-.024.06-.013.06-.011.072-.013.06-.011.072-.013.071v.335l.013.072.024.072.011.071c.227.753.718 1.076 1.028 1.71 0 0 .239-1.148.179-2.033-.048-.9-.37-1.235-.765-1.558zm-2.915 2.093v-.037l.012-.048.024-.048.011-.06.036-.047.023-.06.037-.061.035-.06.036-.072.036-.06.048-.071.048-.072.047-.072.036-.071.095-.144.096-.143.048-.072.048-.084.035-.072.048-.072.036-.071.036-.072.035-.072.024-.059.024-.072.024-.06.012-.072.012-.059v-.108c-.06-.574-.813-.98-1.005-1.065h-.011c-.191.085-.956.491-1.004 1.065-.048.574.969 1.637.992 2.068h.026v.003zm1.541-2.069l-.012.012v.025l-.012.013-.013.011v.012l-.011.012-.012.024-.012.024-.011.035-.024.048-.037.06-.024.06-.035.06-.024.072-.036.06-.036.072-.036.083-.035.072-.036.071-.036.084-.072.168-.072.156-.035.083-.024.072-.035.071-.024.084-.036.072-.024.06-.024.072-.012.06-.024.06-.012.049c-.12.538-.012.884.227 1.206.251.324.658.682 1.029 1.352 0 0 .441-.574.489-.873.048-.31-.024-1.027-.131-1.327-.085-.302-.456-1.282-.778-2.275zm-1.541 5.321l.059-.061.061-.06.059-.06.048-.06.06-.06.048-.06.059-.06.048-.072.035-.06.048-.06.013-.035.023-.024.024-.037.012-.023.011-.036.024-.024.012-.024.011-.036.013-.024.011-.024.013-.024.011-.024c.084-.251.108-.61-.107-.884-.251-.323-.574-.694-.598-.992h-.024c-.011.3-.334.67-.597.992-.216.274-.192.633-.096.884.096.24.382.658.706.944h.013v.003zm1.181-.933l.012.012.011.012.013.012.012.012.012.024.024.024.023.036.036.036.036.048.036.036.036.048.048.048.035.06.048.048.048.06.035.047.096.12.084.107.048.06.048.06.036.06.035.048.048.06.036.047.036.048.024.048.035.048.024.048.024.035.024.035.012.024v.013l.012.012v.013c.119.299.299.837.048 1.22-.251.382-.849.992-1.363 1.255 0 0 .562-.873.502-1.59-.036-.466-.383-.873-.454-1.148-.071-.278-.023-.756.18-1.186zm1.617-.55l-.012.012-.012.024-.012.013-.012.023-.012.024-.024.024-.012.024-.011.024-.012.037-.012.023-.024.037-.012.024-.012.036-.012.024-.036.072-.024.071-.024.072-.024.072-.024.072-.024.071-.011.048v.036l-.012.036v.036l-.012.048v.036c-.024.407.048.741.275 1.35.274.753.704 1.603.921 1.985 0 0 .382-.561.597-1.052 0 0-.61-.837-.872-1.422-.3-.697-.42-1.343-.539-1.88zm.286-.335v.024l.011.036v.037l.013.047.011.048.012.072.012.072.012.084.024.083.024.096.024.108.024.107.035.108.036.12.036.13.035.12.048.131.048.144.048.13.059.144.06.144.06.143.071.144.072.143.072.143.083.144.084.155.096.143.096.131.095.144.107.143c.778.98 1.411 1.328 1.83 1.328.633 0 1.267-.539 1.482-1.137.204-.597.144-1.541-.263-1.864 0 0-.382 1.171-1.195 1.219-.907.049-2.091-.98-3.262-2.964z" fill="#0055A5"/><path d="M129.17 29.72l-.012.036-.012.035v.036l-.012.036-.012.036v.036l-.012.085-.012.083-.012.084v.455l.012.096.012.095.012.096.024.096.024.095c.096.383.323.885.777 1.172.382.239 1.302.3 1.649-.574 0-.003-1.673.13-2.426-1.999zm-4.04 5.81l.047-.025.036-.024.048-.012.035-.024.048-.024.036-.024.024-.012.024-.024.024-.013.012-.012.024-.024.024-.012.024-.024.024-.013.024-.024.024-.023.011-.024.024-.024.024-.024.024-.036.024-.023.024-.037.024-.024.024-.035.024-.036.035-.048c.203-.323.406-.92.298-1.35-.143-.527-.442-.742-.609-1.077-.131.131-.215.227-.395.335h-.011c-.168-.107-.263-.203-.407-.335-.179.335-.454.55-.598 1.076-.107.43.085 1.028.3 1.35.263.434.466.506.706.625zm-.001 3.286l.011-.048.024-.047.024-.06.024-.061.035-.06.037-.06.035-.06.048-.06.048-.072.047-.071.048-.06.048-.072.096-.144.107-.143.096-.144.047-.072.048-.071.048-.072.035-.06.037-.072.035-.072.035-.059.024-.072.024-.06.024-.06.013-.06v-.154c-.155-.825-.682-.658-1.089-.993h-.011c-.407.335-.945.167-1.089.993-.105.53.971 1.534 1.091 2.047zm1.291-1.206l-.012.047-.035.06-.024.06-.036.06-.035.06-.036.06-.036.06-.036.06-.083.12-.096.12-.083.12-.096.119-.083.12-.036.047-.048.06-.036.06-.036.06-.035.048-.024.06-.036.047-.023.06-.024.048-.013.048-.011.048-.013.048-.011.047v.037c.024 1.22.55 1.96.669 2.367 0 0 .981-.777 1.148-1.661.092-.459-.015-1.821-.78-2.49zm1.099.86l-.012-.035-.012-.037-.012-.035-.024-.036-.012-.048-.024-.036-.012-.047-.024-.048-.024-.048-.024-.06-.024-.047-.024-.048-.047-.108-.06-.107-.059-.12-.06-.108-.036-.048-.036-.047-.035-.048-.036-.048-.036-.048-.035-.048-.037-.048-.035-.036-.037-.036-.035-.036-.035-.036-.048-.036s-.526-1.554 1.171-2.51c0 0 .705.92.898 1.805.189.873-.744 1.399-1.174 2.188zm2.128-3.945l.047.072.06.06.06.072.059.071.059.06.061.071.059.072.06.06.072.06.059.072.024.024.036.024.036.036.024.024.035.024.024.024.036.024.024.013.036.023.024.024.035.012.024.012s.108.694.048 1.16c-.083.681-.538 1.386-.717 1.912 0 0-.753-.98-.825-1.554-.096-.574-.083-1.04-.107-1.315.001-.002.419-.671.647-1.137zm1.961 3.347l.024-.035.024-.036.024-.048.035-.037.024-.06.035-.048.037-.06.024-.06.035-.07.036-.061.036-.072.048-.084.035-.072.036-.084.036-.072.036-.083.072-.167.072-.18.059-.179.035-.083.024-.084.024-.096.024-.084.024-.083.012-.096.012-.084.012-.083v-.169s-.837.455-1.53.12c0 0-.096 1.124.036 1.495.108.313.264.492.599.755zm-.191.239l-.013-.012-.011-.011-.024-.024-.011-.013-.024-.012-.013-.013-.024-.024-.011-.012-.024-.024-.024-.012-.012-.024-.024-.024-.048-.037-.048-.047-.035-.037-.048-.048-.036-.036-.023-.024-.024-.011-.013-.024-.024-.024-.024-.013-.011-.023-.013-.013-.023-.024-.012-.012-.012-.024s-.55 1.028-.646 1.327c0 0 .275.06.574-.155.31-.211.382-.271.681-.57zm-2.582-.61l.012.013v.012l.011.024v.013l.013.023.011.013v.024l.013.024.024.047.035.048.024.06.036.047.036.06.048.072.035.06.048.072.048.06.036.072.096.132.095.144.048.06.048.072.048.059.035.06.048.06.036.06.048.049.035.047.037.048.024.036.011.012.024.024.012.012.012.013.011.012v.013l.013.012.011.012s-.071.454-.394 1.1a4.941 4.941 0 01-1.052 1.338s-.55-.968-.717-1.386c-.191-.49-.18-.98-.084-1.16.18-.425.825-1.034 1.125-1.573zm-3.696 7.424l.011-.036.013-.035.012-.036.011-.036.024-.024.012-.035.024-.037.024-.036.024-.035.023-.037.037-.047.024-.037.059-.072.059-.084.061-.083.071-.083.06-.096.059-.095.036-.048.024-.048.036-.048.023-.048.024-.047.024-.06.024-.048.024-.059c.12-.346.12-.765-.024-1.052-.155-.323-.741-1.136-.813-1.363-.071.228-.645 1.04-.813 1.363-.143.287-.143.705-.012 1.052.215.598.73 1.004.813 1.35h.026zm2.333-4.147l-.012.047-.024.036-.024.048-.024.036-.024.048-.035.048-.024.036-.036.048-.036.048-.035.06-.06.096-.072.107-.072.095-.072.108-.06.107-.059.107-.036.06-.024.048-.024.059-.036.048-.011.048-.024.06-.024.048-.012.059-.012.048-.012.048c-.072.406 0 .74.095 1.028.12.274.479.824.718 1.243 0 0 .824-.776 1.004-1.326.131-.42.095-1.005-.107-1.387-.204-.371-.634-.765-.826-1.16zm2.344-.108l-.024.047-.024.048-.024.036-.024.047-.024.048-.024.037-.059.083-.06.096-.072.084-.059.084-.072.083-.059.083-.061.084-.059.084-.024.035-.024.048-.024.036-.024.048-.024.035-.023.036-.012.048-.012.036-.024.036-.012.048c-.132.467-.167.777.06 1.339.202.49.454.776.538 1.076 0 0 .669-.86.777-1.22.119-.37.155-.956.011-1.326-.132-.383-.371-.873-.538-1.22zm-4.688 10.89l.012-.048.011-.048.013-.048.024-.059.024-.06.023-.06.024-.071.036-.083.036-.072.036-.084.036-.083.035-.096.048-.096.035-.095.048-.096.037-.107.047-.096.048-.107.036-.12.036-.106.048-.12.036-.12.036-.12.036-.119.035-.12.024-.119.024-.132.024-.12.024-.131.012-.131.012-.12v-.13c.035-.694-.598-1.794-.945-2.2h-.024c-.347.406-.956 1.506-.945 2.2.05 1.372.922 2.687.958 3.117zm1.399-7.59v.01h.012v.012l.012.013.012.012.012.011.011.012.013.024.011.012.024.024.012.024.012.024.048.048.035.06.048.06.048.06.048.071.048.072.059.072.048.084.048.083.06.083.048.084.059.084.048.095.048.084.047.084.036.095.048.084.036.083.035.095.024.085.024.083.024.072.012.083v.143c-.024.921-.634 1.519-.729 2.093 0 0-.598-.681-.825-1.136-.263-.526-.466-.956-.382-1.541.061-.586.217-.957.826-1.542zm2.115-.144l-.024.024-.012.036-.024.036-.024.036-.024.035-.024.048-.024.048-.035.047-.024.048-.024.048-.024.06-.035.047-.024.06-.024.06-.061.12-.023.071-.024.06-.024.06-.012.06-.024.072-.011.059-.024.06-.012.06-.012.071v.06l-.012.06v.107l.012.06v.06l.024.047c.131.539.705 1.291.896 1.626 0 0 .454-.932.562-1.363.095-.43.011-1.123-.909-1.983z" fill="#0055A5"/><path d="M125.917 53.783l.012-.095.012-.096.012-.096.012-.095.024-.096.012-.084.024-.083.024-.084.036-.085.024-.083.024-.071.036-.084.036-.071.024-.072.072-.144.059-.132.072-.13.059-.12.06-.12.024-.06.024-.06.024-.06.024-.059.024-.047.011-.06.012-.048.012-.047c.12-.622.083-1.208-.406-1.926a18.234 18.234 0 01-1.137 2.965c-.012.024-.023.035-.035.06 0-.025-.012-.037-.024-.06a17.157 17.157 0 01-1.148-2.965c-.478.718-.526 1.303-.406 1.925.108.55.717 1.208.789 2.283.072 1.089-1.148 1.495-1.148 1.495.419.144.885.215 1.626-.49.131-.131.239-.262.311-.418.083.155.191.287.311.419.753.704 1.219.633 1.626.49 0 0-1.208-.407-1.148-1.496zm-3.836-7.183l.012.035.024.047.011.037.013.047.024.048.024.048.011.048.024.048.035.095.048.096.048.108.036.096.048.108.024.048.012.047.023.036.024.048.012.047.012.037.024.048.012.036.012.035.012.024.012.036.012.024v.036l.012.011c.096.43-.036.957-.813 1.507 0 0-.502-.359-.705-.825-.191-.43-.071-.74.12-.956.191-.24.658-.755.837-1.1zm1.647 1.601v.084l-.011.048v.084l-.012.06v.047l-.012.06-.011.06-.013.072-.011.071-.013.072-.011.072-.013.071-.011.072-.036.155-.036.155-.048.167-.024.072-.012.072-.035.083-.024.072-.024.072-.024.071-.036.072-.023.06-.037.06-.024.059c-.489.85-1.207 1.495-1.841 1.495-.574 0-.693-.347-.991-.49 0 0 .143-.741.8-.933.801-.25 2.031-1.206 2.533-2.115z" fill="#0055A5"/><path d="M121.639 49.755l-.024-.024-.024-.011-.048-.037-.024-.023-.024-.013-.036-.024-.024-.011-.024-.024-.024-.024-.011-.012-.013-.012-.011-.012-.013-.012-.024-.011-.012-.013-.011-.012-.013-.012-.011-.024-.024-.012-.013-.012-.011-.023s-.61.226-1.136.573c-.502.347-1.005.933-1.268 1.232 0 0 .753.191 1.244-.024 0 0 .179-.729.717-1.052.132-.072.503-.192.862-.37zm-.647-.621l-.013-.012-.011-.024-.013-.012-.011-.024-.013-.024-.011-.024-.013-.024-.011-.024-.012-.024-.024-.024-.012-.036-.012-.024-.012-.024-.012-.035-.012-.036-.012-.023-.024-.036-.011-.036v-.037l-.013-.035-.011-.035-.012-.037-.012-.047v-.036l-.012-.035v-.096l-.012-.036v-.096l.012-.048v-.047s-1.076.681-1.399.932c-.323.263-.992.956-1.148 1.184 0 0 .813-.18 1.446-.383.682-.228 1.148-.539 1.4-.682zm-1.817 1.159l-.048.023-.06.012-.072.024-.059.024-.072.012-.071.024-.084.012-.071.024-.084.023-.084.013-.167.035-.167.048-.179.036-.168.036-.179.035-.167.037-.072.011-.083.024-.072.011-.083.024-.071.013-.061.011-.071.024-.06.013-.059.012-.048.024c-.55.167-.945.43-1.458 1.004 0 0 .789.215 1.219.359 0 0 .681-.467 1.422-.741.488-.19.715-.705 1.229-1.207zm-1.207 3.837l.023-.023.024-.024.024-.036.024-.024.013-.012.011-.024.012-.012.012-.013v-.024l.011-.012.013-.024.011-.011v-.024l.013-.012v-.048l.011-.011v-.144l-.011-.023v-.024l-.013-.037v-.024l-.011-.036c-.084-.227-.562-.49-.848-.622-.467-.226-1.757-.574-2.176-.705 0 0-.215.251-.322.515-.061.107.011.203.191.227.371.071 1.232-.096 1.446.047.226.144.143.347.143.539 0 0 .395-.24.646-.179.346.07.561.238.753.8zm-1.148-1.793h.024l.012.013h.012l.024.011h.024l.024.012.024.012h.024l.024.013.035.011.024.012.036.012.036.012.036.012.035.024.036.012.036.012.048.024.035.012.048.024.035.024.048.012.048.024.036.024.048.024.048.024.048.024.035.024.048.035.048.024.048.024s.215-.083.323-.287c.107-.191.55-.85.956-.932 0 0-.347-.024-.55-.096 0 0-.406.107-.717.239-.297.107-.668.298-1.099.585zm3.336-.825h-.012l-.024.012-.013.012h-.024l-.011.012h-.024l-.012.012h-.024l-.012.011h-.036l-.012.013h-.036l-.011.012h-.061l-.024.012h-.071l-.024.011h-.084s-1.135.79-1.267 1.567c-.12.68.239 1.004.406 1.088.179.096.969.407 1.482-.645 0 0-.872.286-1.123-.131-.227-.43.155-1.052.395-1.22.323-.239.884-.406 1.23-.335a3.159 3.159 0 00-.608-.43z" fill="#0055A5"/><path d="M112.708 60.538l.048-.215.059-.215.06-.227.024-.107.035-.107.036-.108.036-.12.037-.107.035-.107.048-.107.035-.108.048-.108.048-.107c.513-1.089 1.781-3.993 4.411-4.495.239-.06-.287-.67-.526-.634-.24.024-.705.335-.909.467 0 0 0-.622-.012-.73 0-.106-.096-.154-.203-.154-.096.011-.741 0-.933.239-.61.693-1.614 2.558-2.188 3.945-.574 1.387-.969 1.817-1.578 1.602-.598-.215-.956-.909-2.02-.693-.358.071-.765.323-1.088.681.096.168.203.383.693.383.49 0 1.446.203 1.961.562.529.366 1.078.498 1.843.57zm10.495-8.99l.013.084.011.083.024.084.024.083.024.083.036.084.024.072.035.084.036.084.036.084.036.084.047.072.037.083.047.084.036.083.048.083s-.789 3.694-3.694 3.97c0 0 .059-.766.909-1.34.86-.586 2.152-1.494 2.056-2.869 0 0-.239.048-.646.563-.406.514-1.315 2.008-2.701 2.02 0 0 .202-.705.824-1.1.61-.407 1.399-.92 1.758-1.542.358-.61.73-.896.98-1.016zm-1.375 13.462l1.769 2.473 1.339-2.378-.478-.86c-.347.632-.73 1.303-.932 1.685-.155-.239-.598-.86-1.183-1.686l-.515.765z" fill="#0055A5"/><path d="M121.387 62.917l-.322-.455-.335-.465-.335-.467-.334-.466-.335-.466-.323-.455-.155-.215-.156-.215-.155-.215-.144-.203-.143-.204-.132-.191-.131-.191-.132-.18-.12-.166-.119-.156-.107-.155-.096-.132-.096-.131-.084-.12-.071-.108-.06-.096-.06-.071-.048-.072-.035-.048-.024-.035.669-.478-2.104-.802.036 2.284.717-.515 4.232 5.954.502-.765zM106.899 49.42l.048-.047.059-.048.048-.036.06-.035.059-.024.06-.024.059-.012.06-.013.06-.011h.072l.06.011h.072l.072.024.072.012.071.024.072.024.072.036.084.035.072.037.084.036.071.048.085.048.083.059.072.048.084.059.083.06.083.071.084.06.083.071.072.072.083.072.084.071c.884.813 1.446 1.65.932 2.224-.478.514-1.411.072-2.284-.741-.895-.812-1.445-1.65-.931-2.21z" fill="#0055A5"/><path d="M108.333 59.462l-.011-.011-.012-.013-.012-.011h-.013v-.012h-.011v-.012h-.012v-.012h-.012c-.467-.418-.741-1.052-.741-1.746a2.425 2.425 0 012.415-2.426 2.428 2.428 0 012.427 2.426c0 .18-.036.467-.036.467.107-.203.514-1.124.586-1.291a3.085 3.085 0 00-2.977-2.26c-1.22 0-2.259.706-2.774 1.734.191-1.22.801-2.32 1.231-2.726.515-.49 1.398-.645 1.398-.645-.585.084-1.326-.263-2.188-1.04-.8-.741-1.207-1.387-1.243-1.924.048.765.035 1.183-.179 1.817-.299.837-1.1 2.39-.813 4.149.155.968.848 2.403 2.032 3.574.239.263.335.658.371.86 0 0 1.722 0 2.141.036 0 0 .406-.036.382-.3 0-.251-.226-.31-.418-.31-.216-.001-1.077.011-1.531-.324zm9.538.586l-.202.071-.216.072-.202.06-.203.06-.215.06-.204.06-.203.047-.202.048-.216.048-.202.036-.203.035-.203.036-.395.071-.406.06c-.67.108-1.339.144-1.985.12a.584.584 0 01-.048.346s.12.144.12.324c.658.012 1.339-.013 2.02-.131 1.147-.18 2.355-.407 3.562-.861l-.397-.562zm1.818-.084l.274-.155.275-.168.274-.179.275-.191.263-.203.274-.215.263-.227.275-.239.263-.25.25-.275.263-.274.251-.3.263-.323.25-.323.24-.347.131-.179.119-.191.227-.383c-.347.155-.801.048-.801.048-.024.035-.083.131-.119.167-1.196 1.782-2.535 2.917-3.91 3.658l.4.55zm-9.709.622h-.119l-.036-.011h-.394l-.084.011h-.095l-.084.013h-.096l-.083.012h-.084l-.047.011h-.037l-.036.012h-.035c-.431.06-.909.155-.969.382-.036.227.107.466.323.8.143.204.454.096.622.025.179-.072 1.184-.598 1.339-.777.155-.167.215-.419-.085-.478zm1.019.669l-.013-.01-.012-.013h-.011l-.012-.012h-.012l-.013-.011-.011-.013h-.024l-.013-.012h-.024l-.012-.012h-.024l-.011-.011h-.048l-.012-.013h-.047l-.024-.012h-.168l-.024.012h-.024l-.023.013h-.024l-.024.011h-.024c-.275.108-1.255.694-1.327.957-.06.275.072.419.227.478.155.06.335.12.478.13.239.013.478-.13.61-.286.12-.155.574-.705.646-.837.059-.108.107-.3 0-.358zm.119.598l-.012.013-.011.024-.024.012-.011.024-.024.024-.024.024-.012.024-.024.024-.024.023-.024.036-.023.024-.024.024-.036.059-.048.06-.023.024-.024.036-.024.024-.024.024-.013.024-.024.024-.023.024-.013.024-.024.024-.012.024-.013.012-.011.024-.012.012v.013h-.012v.011l-.012.012c-.048.072.023.203.143.18.132-.013.8-.085 1.195-.347.383-.263.646-.765.383-.956-.275-.194-.682-.098-1.136.392zm.216-1.471h-.024l-.024-.011h-.036l-.024-.013h-.024l-.024-.011h-.047l-.036-.013h-.024l-.024-.011h-.095l-.024-.011h-.167l-.024.011h-.023l-.024.011h-.024v.013h-.024l-.013.011-.011.013h-.012v.011h-.012v.012c-.143.215-.048.43.359.621.395.192 1.135.347 1.278.144.143-.203-.048-.55-.897-.777zM128.177 46.6l-.013.035-.024.047-.011.037-.012.047-.023.048-.013.048-.024.048-.024.048-.035.095-.048.096-.036.108-.048.096-.048.108-.024.048-.012.047-.024.036-.024.048-.012.047-.023.037-.013.048-.011.036-.013.035-.011.024-.013.036-.011.024-.013.036v.011c-.083.43.037.957.813 1.507 0 0 .515-.359.705-.825.191-.43.072-.74-.107-.956-.203-.24-.657-.755-.848-1.1zm-1.65 1.601l.012.024v.144l.012.048v.06l.012.047.012.06v.06l.012.072.012.071.012.072.012.072.024.071.012.072.036.155.036.155.035.167.024.072.024.072.024.083.024.072.036.072.024.071.024.072.037.06.035.06.024.059c.49.85 1.195 1.495 1.841 1.495.574 0 .706-.347.98-.49 0 0-.143-.741-.801-.933-.801-.25-2.033-1.206-2.535-2.115zm2.092 1.554l.036-.024.023-.011.048-.037.024-.023.024-.013.024-.024.024-.011.024-.024.024-.024.011-.012.013-.012.011-.012.024-.012.012-.011.012-.013.012-.012.012-.012.012-.024.024-.012.012-.012.011-.023s.622.226 1.136.573c.502.347 1.004.933 1.279 1.232 0 0-.765.191-1.255-.024 0 0-.179-.729-.717-1.052-.119-.072-.501-.192-.86-.37zm.647-.621l.011-.012.013-.024.011-.012.012-.024.012-.024.011-.024.013-.024.024-.024.011-.024.013-.024.011-.036.013-.024.023-.024.012-.035.012-.036.012-.023.012-.036.012-.036.012-.037.012-.035.012-.035.012-.037v-.047l.012-.036v-.035l.011-.048v-.084l.013-.048v-.048l-.013-.048v-.047s1.076.681 1.399.932c.311.263.992.956 1.136 1.184 0 0-.813-.18-1.435-.383-.681-.228-1.159-.539-1.409-.682zm1.816 1.159l.059.023.06.012.06.024.072.024.071.012.072.024.072.012.084.024.072.023.084.013.167.035.179.048.167.036.18.036.168.035.167.037.083.011.084.024.072.011.072.024.071.013.072.011.06.024.06.013.059.012.06.024c.538.167.933.43 1.459 1.004 0 0-.802.215-1.22.359 0 0-.681-.467-1.434-.741-.491-.19-.718-.705-1.232-1.207zm1.207 3.837l-.024-.023-.024-.024-.024-.036-.024-.024-.011-.012-.013-.024-.011-.012-.013-.013v-.024l-.011-.012-.013-.024-.011-.011v-.024l-.013-.012v-.048l-.011-.011v-.144l.011-.023v-.024l.013-.037.011-.024v-.036c.096-.227.563-.49.849-.622.478-.226 1.769-.574 2.188-.705 0 0 .203.251.323.515.036.107-.024.203-.203.227-.358.071-1.232-.096-1.434.047-.227.144-.155.347-.155.539 0 0-.395-.24-.646-.179-.348.07-.551.238-.754.8zm1.16-1.793h-.023l-.012.013h-.024l-.012.011h-.024l-.023.012-.024.012h-.024l-.037.013-.024.011-.035.012-.024.012-.035.012-.037.012-.035.024-.048.012-.036.012-.036.024-.047.012-.036.024-.048.024-.036.012-.048.024-.048.024-.047.024-.036.024-.048.024-.047.024-.048.035-.048.024-.048.024s-.215-.083-.323-.287c-.107-.191-.55-.85-.944-.932 0 0 .335-.024.537-.096 0 0 .419.107.718.239.297.107.667.298 1.11.585zm-3.336-.825h.012l.012.012h.011l.013.012h.011l.013.012h.024l.011.012h.024l.012.011h.036l.011.013h.037l.024.012h.047l.024.012h.072l.024.011h.084s1.148.79 1.279 1.567c.107.68-.239 1.004-.419 1.088-.167.096-.956.407-1.482-.645 0 0 .872.286 1.123-.131.239-.43-.143-1.052-.395-1.22-.31-.239-.884-.406-1.219-.335.002 0 .276-.264.611-.43z" fill="#0055A5"/><path d="M137.562 60.538l-.06-.215-.048-.215-.059-.227-.036-.107-.036-.107-.024-.108-.035-.12-.037-.107-.048-.107-.035-.107-.048-.108-.048-.108-.047-.107c-.503-1.089-1.77-3.993-4.4-4.495-.25-.06.276-.67.515-.634.239.024.705.335.921.467v-.73c.011-.106.107-.154.202-.154.108.011.742 0 .945.239.598.693 1.615 2.558 2.176 3.945.585 1.387.98 1.817 1.578 1.602.598-.215.957-.909 2.02-.693.371.071.777.323 1.088.681-.084.168-.191.383-.693.383-.491 0-1.435.203-1.961.562-.527.366-1.077.498-1.83.57zm-10.497-8.99l-.024.084-.011.083-.024.084-.024.083-.024.083-.024.084-.035.072-.037.084-.024.084-.047.084-.036.084-.036.072-.048.083-.036.084-.096.167s.801 3.694 3.706 3.97c0 0-.059-.766-.921-1.34-.861-.586-2.14-1.495-2.044-2.869 0 0 .215.048.633.563.407.514 1.315 2.008 2.715 2.02 0 0-.203-.705-.825-1.1-.621-.407-1.398-.92-1.757-1.542-.359-.61-.742-.897-.981-1.017zm-1.925 3.587l.011.048.024.059.024.06.036.058.036.072.047.072.037.084.059.083.048.083.048.085.059.083.06.096.059.095.072.096.131.18.132.19.131.18.072.095.072.084.059.085.072.083.059.084.06.072.06.071.06.072.059.06.059.048.048.06.048.036c.467.442 1.638 1.614 2.271 2.2 0 0-1.78-.442-2.785-1.35 0 0-.705.406-1.219.406h-.035c-.515 0-1.231-.407-1.231-.407-.993.909-2.774 1.35-2.774 1.35.622-.585 1.794-1.757 2.272-2.2.478-.43 1.578-1.984 1.745-2.473h.014z" fill="#0055A5"/><path d="M125.141 59.235h.072l.035-.012h.108l.072-.012.072-.013.06-.024.072-.012.059-.024.072-.011.059-.024.048-.024.06-.012.024-.012.024-.013.024-.011.024-.011.023-.013h.024l.024-.012.024-.012c-.215.43-.609 1.136-.98 1.41h-.012c-.382-.274-.777-.98-.992-1.41.215.096.585.252.98.252h.024z" fill="#0055A5"/><path d="M126.658 67.483l6.957-9.755.706.514.048-2.284-2.104.802.657.478c-.335.49-5.535 7.77-6.193 8.69l-3.143-5.714-.395.585-2.798 4.245-.705-.467v2.247l2.127-.836-.717-.49c.395-.574 1.9-2.87 2.415-3.634l3.145 5.62z" fill="#0055A5"/><path d="M127.939 63.647l-.179-.264-.096-.13-.083-.133-.083-.12-.084-.131-.083-.12-.072-.12-.083-.119-.072-.107-.036-.048-.036-.06-.024-.048-.035-.047-.036-.048-.024-.048-.036-.048-.024-.036-.023-.048-.037-.037-.024-.035-.024-.035c-.167.322-.526.968-.921 1.673l-.502-.884 1.363-2.439.383.585 1.398 2.104-.527.742zm1.433.633l.491.765.705-.467.011 2.247-2.128-.836.705-.49c-.072-.107-.179-.275-.323-.49l.539-.73zm13.999-14.86l-.048-.047-.059-.048-.048-.036-.06-.035-.059-.024-.06-.024-.06-.012-.059-.013-.06-.011h-.072l-.059.011h-.072l-.072.024-.072.012-.071.024-.072.024-.084.036-.072.035-.072.037-.083.036-.072.048-.083.048-.084.059-.083.048-.072.059-.083.06-.084.071-.083.06-.084.071-.084.072-.083.072-.083.071c-.897.813-1.446 1.65-.921 2.224.478.514 1.387.072 2.283-.741.882-.812 1.444-1.65.93-2.21z" fill="#0055A5"/><path d="M141.923 59.462l.012-.011h.012v-.013h.011v-.011h.013v-.012h.011l.013-.012h.011v-.012h.013c.466-.418.729-1.052.729-1.746a2.42 2.42 0 10-4.843 0c0 .18.036.467.036.467-.096-.203-.502-1.124-.586-1.291a3.083 3.083 0 012.965-2.26c1.232 0 2.284.706 2.786 1.734-.191-1.22-.8-2.32-1.231-2.726-.514-.49-1.386-.645-1.386-.645.573.084 1.326-.263 2.175-1.04.801-.741 1.22-1.387 1.244-1.924-.048.765-.024 1.183.191 1.817.299.837 1.088 2.39.813 4.149-.155.968-.861 2.403-2.033 3.574-.25.263-.347.658-.371.86 0 0-1.733 0-2.128.036 0 0-.418-.036-.406-.3 0-.251.239-.31.43-.31.216-.001 1.065.011 1.519-.324zm-11.356.502l-.275-.155-.274-.168-.275-.179-.263-.191-.274-.203-.275-.215-.263-.227-.263-.239-.263-.25-.263-.275-.263-.274-.25-.3-.251-.323-.25-.323-.251-.347-.12-.179-.131-.191-.226-.383c.358.155.8.048.8.048.037.035.083.131.107.167 1.22 1.782 2.559 2.917 3.921 3.647l-.398.56zm1.818.084l.203.071.215.072.203.06.215.06.204.06.202.06.215.047.203.048.204.048.203.036.202.035.203.036.407.071.394.06c.682.108 1.351.144 1.984.12 0 .107 0 .24.048.346 0 0-.107.144-.107.324a10.779 10.779 0 01-2.032-.131c-1.148-.18-2.356-.407-3.574-.861l.408-.562zm7.89.538h.132l.035-.011h.384l.095.011h.084l.096.013h.083l.096.012h.083l.036.011h.048l.036.012h.035c.419.06.897.155.956.382.048.227-.107.466-.323.8-.131.204-.443.096-.622.025-.178-.072-1.171-.598-1.338-.777-.155-.167-.215-.419.084-.478zm-1.004.669l.012-.01v-.013h.012l.024-.012h.012l.012-.011.012-.013h.011l.024-.012h.013l.024-.012h.012l.024-.011h.035l.024-.013h.037l.024-.012h.167l.024.012h.024l.024.013h.024l.024.011h.023c.275.108 1.256.694 1.327.957.06.275-.072.419-.215.478-.168.06-.347.12-.491.13a.759.759 0 01-.598-.286c-.131-.155-.585-.705-.645-.837-.072-.108-.107-.3 0-.358zm-.131.598l.012.013.024.024.012.012.012.024.023.024.024.024.013.024.024.024.024.023.024.036.023.024.024.024.048.059.048.06.048.06.012.024.024.024.024.024.024.024.011.024.024.024.013.024.024.024.011.012.013.024.011.012.012.013v.011l.012.012c.035.072-.035.203-.155.18-.132-.013-.8-.085-1.184-.347-.395-.263-.646-.765-.383-.956.263-.194.681-.098 1.124.392zm-.215-1.471h.036l.012-.011h.036l.024-.013h.024l.024-.011h.048l.036-.013h.024l.035-.011h.085l.024-.011h.166l.024.011h.024l.024.011h.024l.012.013h.024v.011h.011l.013.013.011.011.013.012c.131.215.035.43-.359.621-.395.192-1.148.347-1.291.144-.144-.203.059-.55.896-.777z" fill="#0055A5"/></g><defs><clipPath id="clip0"><path fill="#fff" d="M0 0h165.128v80H0z"/></clipPath></defs></svg>